<svg width="38" height="39" viewBox="0 0 38 39" fill="none" xmlns="http://www.w3.org/2000/svg">
<path d="M27.2408 14.1012C27.4501 14.3162 27.5676 14.6078 27.5676 14.9118C27.5676 15.2157 27.4501 15.5073 27.2408 15.7223L16.8094 26.4282C16.5999 26.643 16.3158 26.7637 16.0196 26.7637C15.7234 26.7637 15.4394 26.643 15.2298 26.4282L10.7592 21.84C10.5618 21.6226 10.4543 21.335 10.4594 21.0378C10.4645 20.7406 10.5818 20.4571 10.7866 20.2469C10.9914 20.0368 11.2676 19.9164 11.5572 19.9111C11.8467 19.9059 12.127 20.0162 12.3388 20.2188L16.0196 23.9946L25.6612 14.1012C25.8707 13.8864 26.1548 13.7657 26.451 13.7657C26.7472 13.7657 27.0312 13.8864 27.2408 14.1012ZM38 19.5C38 23.3567 36.8857 27.1269 34.7979 30.3336C32.7102 33.5404 29.7428 36.0397 26.271 37.5156C22.7992 38.9916 18.9789 39.3777 15.2933 38.6253C11.6077 37.8729 8.22218 36.0157 5.56498 33.2886C2.90778 30.5615 1.09821 27.0869 0.365088 23.3043C-0.368031 19.5216 0.00823208 15.6008 1.4463 12.0377C2.88436 8.47451 5.31964 5.42903 8.44417 3.28634C11.5687 1.14365 15.2422 0 19 0C24.0373 0.00607148 28.8666 2.06248 32.4285 5.71812C35.9904 9.37377 37.9941 14.3301 38 19.5ZM35.7647 19.5C35.7647 16.097 34.7815 12.7704 32.9393 9.94092C31.0972 7.11143 28.4789 4.90611 25.4156 3.60384C22.3522 2.30156 18.9814 1.96083 15.7294 2.62472C12.4773 3.28862 9.49016 4.92732 7.14557 7.3336C4.80098 9.73989 3.2043 12.8057 2.55743 16.1433C1.91056 19.4809 2.24256 22.9404 3.51144 26.0844C4.78032 29.2284 6.92909 31.9156 9.68604 33.8062C12.443 35.6968 15.6843 36.7059 19 36.7059C23.4448 36.7008 27.7061 34.8864 30.849 31.6608C33.9919 28.4352 35.7598 24.0617 35.7647 19.5Z" fill="#16A34A"/>
</svg>
