<svg width="23" height="23" viewBox="0 0 23 23" fill="none" xmlns="http://www.w3.org/2000/svg">
<path d="M11.3 22.6L7.95 19.3H3.3V14.65L0 11.3L3.3 7.95V3.3H7.95L11.3 0L14.65 3.3H19.3V7.95L22.6 11.3L19.3 14.65V19.3H14.65L11.3 22.6ZM12.325 10.8L13.8 9.725L15.25 10.8L14.675 9.1L16.15 8.025H14.35L13.8 6.3L13.25 8.025H11.425L12.9 9.1L12.325 10.8ZM11.3 16.3C12.6833 16.3 13.8625 15.8167 14.8375 14.85C15.8125 13.8833 16.3 12.7 16.3 11.3C16.3 11.1667 16.2958 11.0333 16.2875 10.9C16.2792 10.7667 16.2583 10.6333 16.225 10.5C16.0417 11.2833 15.6333 11.9292 15 12.4375C14.3667 12.9458 13.625 13.2 12.775 13.2C11.775 13.2 10.9333 12.8583 10.25 12.175C9.56667 11.4917 9.225 10.65 9.225 9.65C9.225 8.88333 9.44167 8.19583 9.875 7.5875C10.3083 6.97917 10.875 6.55 11.575 6.3H11.3C9.9 6.3 8.71667 6.7875 7.75 7.7625C6.78333 8.7375 6.3 9.91667 6.3 11.3C6.3 12.7 6.78333 13.8833 7.75 14.85C8.71667 15.8167 9.9 16.3 11.3 16.3Z" fill="white"/>
</svg>
