<svg width="24" height="20" viewBox="0 0 24 20" fill="none" xmlns="http://www.w3.org/2000/svg">
<path d="M4.59199 0.269098C4.52174 0.189905 4.43647 0.125443 4.34111 0.0794487C4.24576 0.0334543 4.14223 0.00684232 4.03652 0.00115523C3.93081 -0.00453186 3.82502 0.0108189 3.72528 0.046318C3.62555 0.0818172 3.53385 0.136758 3.4555 0.207958C3.37716 0.279157 3.31372 0.365198 3.26888 0.461093C3.22403 0.556989 3.19866 0.660833 3.19424 0.766605C3.18982 0.872378 3.20644 0.977976 3.24313 1.07728C3.27982 1.17658 3.33586 1.26761 3.40799 1.3451L5.33199 3.4621C1.69999 5.6911 0.137991 9.12711 0.0689905 9.28311C0.0235036 9.38542 0 9.49614 0 9.60811C0 9.72007 0.0235036 9.83079 0.0689905 9.93311C0.103991 10.0121 0.950991 11.8901 2.83399 13.7731C5.34299 16.2811 8.512 17.6071 12 17.6071C13.7926 17.6173 15.5671 17.2482 17.207 16.5241L19.407 18.9451C19.4773 19.0243 19.5625 19.0888 19.6579 19.1348C19.7532 19.1808 19.8568 19.2074 19.9625 19.2131C20.0682 19.2187 20.174 19.2034 20.2737 19.1679C20.3735 19.1324 20.4652 19.0775 20.5435 19.0063C20.6218 18.9351 20.6853 18.849 20.7301 18.7531C20.775 18.6572 20.8003 18.5534 20.8048 18.4476C20.8092 18.3418 20.7926 18.2362 20.7559 18.1369C20.7192 18.0376 20.6631 17.9466 20.591 17.8691L4.59199 0.269098ZM9.325 7.85311L13.492 12.4381C12.8645 12.7682 12.1451 12.8806 11.4468 12.7575C10.7485 12.6345 10.1109 12.283 9.63402 11.7583C9.15714 11.2336 8.86803 10.5654 8.8121 9.85852C8.75617 9.15169 8.93658 8.44629 9.325 7.85311ZM12 16.0071C8.922 16.0071 6.233 14.8881 4.00699 12.6821C3.09331 11.7741 2.31621 10.7383 1.69999 9.60711C2.16899 8.72811 3.66599 6.2681 6.43499 4.6691L8.235 6.6441C7.53813 7.53661 7.17923 8.64674 7.22173 9.77828C7.26423 10.9098 7.70539 11.9899 8.46723 12.8276C9.22908 13.6653 10.2626 14.2068 11.385 14.3562C12.5074 14.5056 13.6465 14.2534 14.601 13.6441L16.074 15.2641C14.774 15.7629 13.3924 16.0148 12 16.0071ZM12.6 6.4641C12.3915 6.42432 12.2074 6.30336 12.0881 6.12782C11.9689 5.95229 11.9242 5.73656 11.964 5.5281C12.0038 5.31964 12.1247 5.13552 12.3003 5.01625C12.4758 4.89698 12.6915 4.85232 12.9 4.8921C13.9196 5.08977 14.848 5.61175 15.5467 6.38019C16.2454 7.14863 16.6769 8.12235 16.777 9.15611C16.7968 9.36735 16.7318 9.57779 16.5964 9.74113C16.461 9.90448 16.2662 10.0073 16.055 10.0271C16.03 10.0286 16.005 10.0286 15.98 10.0271C15.78 10.028 15.587 9.95391 15.439 9.81954C15.2909 9.68516 15.1985 9.50021 15.18 9.30111C15.1127 8.6135 14.8252 7.96599 14.3604 7.45485C13.8955 6.94371 13.2781 6.59624 12.6 6.4641ZM23.928 9.93311C23.886 10.0271 22.873 12.2701 20.592 14.3131C20.5141 14.3851 20.4226 14.4409 20.3229 14.4773C20.2231 14.5136 20.1172 14.5297 20.0112 14.5247C19.9052 14.5197 19.8012 14.4936 19.7054 14.448C19.6095 14.4024 19.5237 14.3382 19.453 14.2592C19.3822 14.1801 19.3278 14.0877 19.2931 13.9874C19.2584 13.8872 19.2439 13.781 19.2506 13.675C19.2573 13.5691 19.285 13.4656 19.3322 13.3705C19.3793 13.2754 19.4448 13.1906 19.525 13.1211C20.6441 12.1157 21.5841 10.9275 22.305 9.60711C21.6874 8.47488 20.9086 7.43839 19.993 6.5301C17.767 4.3261 15.078 3.2071 12 3.2071C11.3515 3.20631 10.7039 3.25882 10.064 3.3641C9.95993 3.3825 9.85325 3.38011 9.75011 3.35705C9.64698 3.33399 9.54944 3.29072 9.46312 3.22974C9.3768 3.16877 9.30342 3.0913 9.24721 3.0018C9.191 2.91231 9.15309 2.81256 9.13565 2.70833C9.11821 2.6041 9.1216 2.49744 9.14561 2.39453C9.16963 2.29161 9.2138 2.19447 9.27557 2.10872C9.33734 2.02297 9.41549 1.95031 9.5055 1.89494C9.59552 1.83956 9.69561 1.80257 9.8 1.7861C10.5272 1.66603 11.263 1.60616 12 1.6071C15.488 1.6071 18.657 2.9331 21.166 5.4421C23.049 7.3251 23.896 9.20411 23.931 9.28311C23.9765 9.38542 24 9.49614 24 9.60811C24 9.72007 23.9765 9.83079 23.931 9.93311H23.928Z" fill="#4D6530"/>
</svg>
