<svg width="18" height="25" viewBox="0 0 18 25" fill="none" xmlns="http://www.w3.org/2000/svg">
<path d="M18.0028 9.0013C18.0028 7.25937 17.4973 5.55487 16.5478 4.09452C15.5982 2.63416 14.2453 1.4807 12.6532 0.774022C11.061 0.0673425 9.29804 -0.162192 7.57803 0.113255C5.85802 0.388703 4.25488 1.1573 2.96304 2.32583C1.6712 3.49436 0.746159 5.01261 0.300112 6.69647C-0.145935 8.38032 -0.0938274 10.1574 0.450116 11.8122C0.99406 13.4671 2.00647 14.9285 3.36456 16.0193C4.72265 17.1102 6.36807 17.7835 8.10126 17.9577V23.4035C8.10126 23.6423 8.1961 23.8712 8.36491 24.04C8.53372 24.2089 8.76267 24.3037 9.00141 24.3037C9.24014 24.3037 9.46909 24.2089 9.6379 24.04C9.80671 23.8712 9.90155 23.6423 9.90155 23.4035V17.9577C12.1208 17.7319 14.1775 16.6912 15.6739 15.0368C17.1703 13.3825 18.0001 11.232 18.0028 9.0013ZM9.00141 16.2024C7.57716 16.2024 6.18489 15.7801 5.00068 14.9888C3.81646 14.1975 2.89347 13.0729 2.34843 11.757C1.8034 10.4412 1.66079 8.99331 1.93865 7.59643C2.21651 6.19955 2.90235 4.91643 3.90944 3.90933C4.91654 2.90224 6.19966 2.2164 7.59654 1.93854C8.99342 1.66068 10.4413 1.80329 11.7572 2.34833C13.073 2.89336 14.1977 3.81635 14.9889 5.00057C15.7802 6.18479 16.2025 7.57705 16.2025 9.0013C16.2004 10.9105 15.4411 12.7409 14.0911 14.091C12.741 15.441 10.9106 16.2003 9.00141 16.2024Z" fill="#4D6530"/>
</svg>
