<svg width="21" height="21" viewBox="0 0 21 21" fill="none" xmlns="http://www.w3.org/2000/svg">
<path d="M2.27501 18.4065C1.64938 18.4065 1.11381 18.1838 0.668283 17.7382C0.222761 17.2927 0 16.7572 0 16.1315V2.27501C0 1.64938 0.222761 1.11381 0.668283 0.668283C1.11381 0.222761 1.64938 0 2.27501 0H16.1315C16.7572 0 17.2927 0.222761 17.7382 0.668283C18.1838 1.11381 18.4065 1.64938 18.4065 2.27501V9.17827C18.054 8.98443 17.6881 8.81939 17.309 8.68316C16.9298 8.54693 16.5373 8.44983 16.1315 8.39186V2.27501H2.27501V16.1315H8.16957C8.2116 16.55 8.29176 16.9488 8.41006 17.328C8.52835 17.7072 8.67446 18.0667 8.84837 18.4065H2.27501ZM2.27501 15.3228C2.27501 15.4711 2.27501 15.6092 2.27501 15.7373C2.27501 15.8653 2.27501 15.9967 2.27501 16.1315V2.27501V8.39186C2.27501 8.36118 2.27501 8.34201 2.27501 8.33434C2.27501 8.32667 2.27501 8.32283 2.27501 8.32283C2.27501 8.32283 2.27501 9.00617 2.27501 10.3728C2.27501 11.7395 2.27501 13.3895 2.27501 15.3228ZM4.27501 14.1315H8.2424C8.30037 13.7815 8.3885 13.4399 8.5068 13.1065C8.6251 12.7732 8.75888 12.4482 8.90816 12.1315H4.27501V14.1315ZM4.27501 10.2033H10.363C10.8804 9.73116 11.4573 9.33941 12.0938 9.028C12.7302 8.71658 13.4094 8.50454 14.1315 8.39186V8.20327H4.27501V10.2033ZM4.27501 6.27501H14.1315V4.27501H4.27501V6.27501ZM15.1315 20.3169C13.7482 20.3169 12.569 19.8294 11.594 18.8544C10.619 17.8794 10.1315 16.7002 10.1315 15.3169C10.1315 13.9335 10.619 12.7544 11.594 11.7794C12.569 10.8044 13.7482 10.3169 15.1315 10.3169C16.5149 10.3169 17.694 10.8044 18.669 11.7794C19.644 12.7544 20.1315 13.9335 20.1315 15.3169C20.1315 16.7002 19.644 17.8794 18.669 18.8544C17.694 19.8294 16.5149 20.3169 15.1315 20.3169ZM14.5418 18.4065H15.7212V15.9065H18.2212V14.7272H15.7212V12.2272H14.5418V14.7272H12.0418V15.9065H14.5418V18.4065Z" fill="white"/>
</svg>
