<svg width="16" height="12" viewBox="0 0 16 12" fill="none" xmlns="http://www.w3.org/2000/svg">
<path d="M1.19403 0.597013V11.3432C1.19403 11.5016 1.13113 11.6534 1.01916 11.7654C0.907203 11.8774 0.75535 11.9403 0.597013 11.9403C0.438675 11.9403 0.286823 11.8774 0.174861 11.7654C0.0628995 11.6534 0 11.5016 0 11.3432V0.597013C0 0.438675 0.0628995 0.286823 0.174861 0.174861C0.286823 0.0628995 0.438675 0 0.597013 0C0.75535 0 0.907203 0.0628995 1.01916 0.174861C1.13113 0.286823 1.19403 0.438675 1.19403 0.597013ZM8.05967 4.66416L6.56714 5.14924V3.58208C6.56714 3.42374 6.50424 3.27189 6.39228 3.15993C6.28032 3.04796 6.12847 2.98506 5.97013 2.98506C5.81179 2.98506 5.65994 3.04796 5.54798 3.15993C5.43601 3.27189 5.37311 3.42374 5.37311 3.58208V5.14924L3.88058 4.66416C3.72996 4.61468 3.56586 4.62706 3.42437 4.69858C3.28288 4.77009 3.17559 4.89489 3.12611 5.0455C3.07663 5.19612 3.08901 5.36023 3.16052 5.50172C3.23204 5.64321 3.35683 5.7505 3.50745 5.79998L4.99998 6.28431L4.07909 7.55296C4.03042 7.61619 3.99493 7.68854 3.9747 7.76572C3.95447 7.84291 3.94992 7.92337 3.96131 8.00234C3.97271 8.08132 3.99982 8.15721 4.04104 8.22553C4.08227 8.29384 4.13677 8.3532 4.20133 8.4001C4.26588 8.447 4.33919 8.48048 4.4169 8.49856C4.49462 8.51664 4.57517 8.51897 4.6538 8.50539C4.73243 8.49181 4.80754 8.46261 4.87469 8.4195C4.94184 8.3764 4.99967 8.32028 5.04476 8.25445L5.96565 6.9858L6.88654 8.25445C6.93163 8.32028 6.98946 8.3764 7.05661 8.4195C7.12376 8.46261 7.19887 8.49181 7.2775 8.50539C7.35613 8.51897 7.43668 8.51664 7.5144 8.49856C7.59211 8.48048 7.66542 8.447 7.72997 8.4001C7.79453 8.3532 7.84903 8.29384 7.89026 8.22553C7.93148 8.15721 7.95859 8.08132 7.96999 8.00234C7.98138 7.92337 7.97683 7.84291 7.9566 7.76572C7.93637 7.68854 7.90088 7.61619 7.85221 7.55296L6.93132 6.28431L8.42385 5.79998C8.56782 5.74643 8.6856 5.63945 8.75272 5.50129C8.81984 5.36313 8.83112 5.20441 8.78422 5.05814C8.73733 4.91187 8.63586 4.78931 8.50091 4.71593C8.36597 4.64256 8.20794 4.62401 8.05967 4.66416ZM15.9701 5.04774C15.9212 4.8985 15.8154 4.77454 15.6757 4.70274C15.536 4.63094 15.3737 4.61708 15.2238 4.66416L13.7313 5.14924V3.58208C13.7313 3.42374 13.6684 3.27189 13.5564 3.15993C13.4445 3.04796 13.2926 2.98506 13.1343 2.98506C12.9759 2.98506 12.8241 3.04796 12.7121 3.15993C12.6002 3.27189 12.5373 3.42374 12.5373 3.58208V5.14924L11.0447 4.66491C10.8941 4.61592 10.7302 4.62878 10.5891 4.70064C10.4479 4.77251 10.3411 4.8975 10.2921 5.04812C10.2431 5.19873 10.256 5.36264 10.3279 5.50379C10.3997 5.64493 10.5247 5.75174 10.6753 5.80073L12.1679 6.28505L11.247 7.5537C11.1983 7.61694 11.1628 7.68929 11.1426 7.76647C11.1224 7.84366 11.1178 7.92411 11.1292 8.00309C11.1406 8.08206 11.1677 8.15795 11.2089 8.22627C11.2502 8.29459 11.3047 8.35395 11.3692 8.40085C11.4338 8.44774 11.5071 8.48122 11.5848 8.49931C11.6625 8.51739 11.7431 8.51971 11.8217 8.50613C11.9003 8.49255 11.9754 8.46335 12.0426 8.42025C12.1097 8.37715 12.1676 8.32103 12.2126 8.25519L13.1335 6.98654L14.0544 8.25519C14.0995 8.32103 14.1573 8.37715 14.2245 8.42025C14.2916 8.46335 14.3668 8.49255 14.4454 8.50613C14.524 8.51971 14.6046 8.51739 14.6823 8.49931C14.76 8.48122 14.8333 8.44774 14.8979 8.40085C14.9624 8.35395 15.0169 8.29459 15.0581 8.22627C15.0994 8.15795 15.1265 8.08206 15.1379 8.00309C15.1493 7.92411 15.1447 7.84366 15.1245 7.76647C15.1043 7.68929 15.0688 7.61694 15.0201 7.5537L14.0992 6.28505L15.5917 5.80073C15.7416 5.75079 15.8655 5.64351 15.9364 5.50238C16.0074 5.36125 16.0195 5.19778 15.9701 5.04774Z" fill="#4D6530"/>
</svg>
