<svg width="424" height="48" viewBox="0 0 424 48" fill="none" xmlns="http://www.w3.org/2000/svg">
<path d="M3.07766 28.3996C2.36792 28.101 1.89919 27.5545 1.67147 26.76C1.44376 25.9655 1.54707 25.0521 1.98141 24.0197C2.204 23.4907 2.51182 22.9215 2.90485 22.3122C3.30331 21.6901 3.72384 21.0696 4.16644 20.4508C4.60905 19.832 5.01329 19.2503 5.37917 18.7055C5.75049 18.1479 6.0203 17.669 6.1886 17.269C6.30805 16.9851 6.36163 16.7494 6.34936 16.562C6.34251 16.3617 6.23585 16.2181 6.02938 16.1312C5.87453 16.0661 5.66401 16.061 5.39781 16.1161C5.13162 16.1712 4.86004 16.3835 4.58307 16.753L4.42208 16.5941C4.88899 15.4843 5.50982 14.7127 6.28455 14.2792C7.07219 13.8512 7.89831 13.819 8.7629 14.1828C9.57588 14.5248 10.0259 15.0256 10.113 15.6849C10.213 16.3497 10.0947 17.0822 9.75812 17.8823C9.50838 18.4759 9.17782 19.081 8.76646 19.6978C8.368 20.3199 7.95018 20.934 7.51301 21.5398C7.08126 22.1328 6.68143 22.686 6.3135 23.1995C5.95847 23.7185 5.70223 24.1651 5.54479 24.5393C5.31133 25.0942 5.33655 25.4313 5.62044 25.5508C5.7882 25.6214 6.06289 25.6002 6.44451 25.4874C6.83157 25.3617 7.26681 25.1575 7.75025 24.8748C8.25203 24.5847 8.76262 24.2376 9.28202 23.8333C9.80685 23.4162 10.2974 22.9543 10.7536 22.4476C10.8472 22.1528 10.9419 21.8737 11.0376 21.6102C11.1387 21.3337 11.2327 21.0923 11.3195 20.8858C11.7539 19.8535 12.2008 19.0619 12.6604 18.511C13.1329 17.9655 13.5865 17.6096 14.0211 17.4431C14.4556 17.2766 14.8342 17.2612 15.1568 17.3969C15.6085 17.5869 15.9091 18.0096 16.0587 18.6649C16.2137 19.3073 16.112 20.0543 15.7537 20.906C15.5311 21.4351 15.1846 21.988 14.7141 22.5646C14.2491 23.1284 13.636 23.6831 12.8749 24.2286C12.3693 25.3221 12.1145 26.2705 12.1107 27.0739C12.1068 27.8773 12.3178 28.3686 12.7437 28.5477C13.0147 28.6617 13.362 28.6484 13.7857 28.5077C14.2278 28.3595 14.6875 28.0973 15.1648 27.7209C15.6475 27.3317 16.1112 26.8433 16.5558 26.2557C17.0134 25.6736 17.3996 25.0083 17.7145 24.2599C17.8991 23.8211 18.0596 23.3494 18.1959 22.8448C18.3452 22.3457 18.467 21.8577 18.5612 21.3809C18.6684 20.9096 18.7365 20.513 18.7657 20.1911C18.858 19.9717 19.0406 19.7904 19.3135 19.647C19.6048 19.4961 19.9315 19.4057 20.2934 19.3758C20.6608 19.3329 20.9993 19.3766 21.309 19.5069C21.6187 19.6372 21.8694 19.8717 22.061 20.2106C22.2526 20.5494 22.322 21.0342 22.2692 21.6651C22.2218 22.2831 21.9864 23.0954 21.5629 24.1019C20.9711 25.5085 20.234 26.7552 19.3515 27.842C18.4744 28.9159 17.5279 29.7936 16.5122 30.475C15.5093 31.1618 14.5261 31.6215 13.5626 31.854C12.6044 32.0736 11.7447 32.0233 10.9833 31.703C10.3123 31.4206 9.84425 30.9807 9.57923 30.3832C9.31422 29.7856 9.20571 29.0869 9.2537 28.2869C9.3017 27.4869 9.45325 26.6393 9.70834 25.7442C8.77687 26.6585 7.89626 27.3437 7.06653 27.7996C6.24222 28.2426 5.49393 28.5049 4.82164 28.5866C4.14936 28.6683 3.56803 28.6059 3.07766 28.3996ZM20.425 35.4284C19.8541 35.2374 19.4604 34.8917 19.244 34.3912C19.0276 33.8907 19.0304 33.3086 19.2524 32.6447C19.3723 32.2862 19.5742 31.8371 19.8581 31.2973C20.1464 30.7441 20.4724 30.1446 20.8361 29.4986C21.2175 28.8438 21.5945 28.1801 21.9671 27.5075C22.3441 26.8217 22.6923 26.1557 23.0117 25.5097C23.3311 24.8637 23.5774 24.2817 23.7506 23.7639C23.9682 23.1134 24.0396 22.6132 23.9647 22.2633L24.0046 22.1438C24.4077 21.9096 24.8085 21.7706 25.207 21.7267C25.6055 21.6828 25.9707 21.7164 26.3027 21.8274C26.8072 21.9962 27.1787 22.3197 27.4173 22.7981C27.6559 23.2765 27.6553 23.8742 27.4155 24.5911C27.2867 24.9762 27.076 25.4297 26.7832 25.9518C26.4905 26.4739 26.169 27.0159 25.8187 27.5778C25.4683 28.1397 25.1313 28.6618 24.8077 29.144C25.2242 28.7372 25.7182 28.3636 26.2897 28.0233C26.8789 27.6741 27.4923 27.429 28.1299 27.288C28.7809 27.1514 29.3984 27.1808 29.9826 27.3762C30.6465 27.5983 31.0224 27.9528 31.1105 28.4399C31.2118 28.9314 31.1603 29.4826 30.9561 30.0933C30.7696 30.6509 30.51 31.2284 30.1773 31.8258C29.8491 32.4098 29.5276 32.9739 29.2127 33.5182C28.9022 34.0491 28.6826 34.5071 28.5538 34.8921C28.3673 35.4498 28.44 35.7841 28.772 35.8951C28.918 35.944 29.0575 35.9463 29.1903 35.9022C29.3409 35.8492 29.4605 35.7785 29.5491 35.69L29.6553 35.8363C29.4821 36.3541 29.2094 36.75 28.8372 37.0241C28.4651 37.2982 28.0487 37.4616 27.5883 37.5143C27.1411 37.5714 26.7117 37.5311 26.3001 37.3934C25.7557 37.2113 25.3244 36.8678 25.0062 36.3628C24.6924 35.8445 24.6731 35.1737 24.9484 34.3506C25.1039 33.8859 25.3324 33.4013 25.6339 32.8969C25.9488 32.397 26.2503 31.9147 26.5386 31.4502C26.8312 30.9723 27.0353 30.5608 27.1508 30.2156C27.3017 29.7642 27.2179 29.4852 26.8993 29.3786C26.6072 29.2809 26.2397 29.3204 25.7968 29.497C25.3539 29.6736 24.9264 29.9366 24.5143 30.286C24.1155 30.6397 23.8052 31.0157 23.5834 31.4139C23.5214 31.5113 23.4659 31.633 23.417 31.779C23.306 32.1109 23.2459 32.4451 23.2367 32.7816C23.2408 33.1225 23.174 33.4987 23.0364 33.9103C22.8321 34.5211 22.5018 34.9789 22.0455 35.284C21.5892 35.589 21.049 35.6371 20.425 35.4284ZM34.5697 39.9466C33.5856 39.6709 32.8248 39.247 32.2872 38.6747C31.7534 38.089 31.4154 37.4273 31.2731 36.6896C31.1346 35.9384 31.1711 35.1853 31.3826 34.4304C31.5827 33.7159 31.9177 33.0392 32.3875 32.4002C32.8745 31.7515 33.464 31.2043 34.1559 30.7584C34.8614 30.3163 35.6425 30.019 36.4994 29.8665C37.3698 29.7178 38.2836 29.7775 39.2407 30.0456C40.427 30.3779 41.2143 30.8893 41.6025 31.5796C42.0079 32.2602 42.1049 32.9779 41.8934 33.7329C41.7121 34.3799 41.3688 34.9308 40.8635 35.3853C40.3754 35.8301 39.801 36.1417 39.1404 36.3201C38.4836 36.4851 37.8181 36.4731 37.1441 36.2843C36.7936 36.1861 36.4514 36.0321 36.1177 35.8223C35.7839 35.6125 35.4738 35.3439 35.1875 35.0165C35.0208 35.8712 35.0935 36.5458 35.4057 37.0404C35.7178 37.5349 36.1638 37.8634 36.7434 38.0258C37.1479 38.1391 37.5731 38.1782 38.0191 38.1432C38.4688 38.0948 38.8962 37.9964 39.3012 37.8482C39.7234 37.6902 40.0686 37.4961 40.3366 37.2659L40.4499 37.4067C40.2535 38.1077 39.9371 38.666 39.5008 39.0817C39.0818 39.4877 38.5929 39.7797 38.0342 39.9576C37.4755 40.1355 36.8923 40.2192 36.2845 40.2089C35.694 40.1889 35.1224 40.1015 34.5697 39.9466ZM36.5643 34.6171C36.9957 34.7379 37.3802 34.7148 37.7178 34.5477C38.0592 34.3671 38.3445 34.1271 38.5737 33.8279C38.8029 33.5286 38.9534 33.2509 39.0252 32.9948C39.112 32.6847 39.0962 32.404 38.9776 32.1527C38.8627 31.8879 38.6503 31.7121 38.3402 31.6252C38.0976 31.5573 37.8034 31.5694 37.4577 31.6615C37.1255 31.7575 36.7844 31.989 36.4344 32.3562C36.0881 32.7099 35.7756 33.2548 35.4967 33.9909C35.8714 34.3139 36.2273 34.5227 36.5643 34.6171ZM43.5553 42.229C43.0638 42.1173 42.6719 41.8202 42.3796 41.3374C42.0903 40.841 42.0294 40.2242 42.1969 39.487C42.2775 39.132 42.4099 38.7386 42.5941 38.3067C42.7784 37.8748 42.9778 37.4391 43.1925 36.9997C43.4102 36.5467 43.6066 36.1247 43.7815 35.7338C43.9595 35.3291 44.0796 34.9903 44.1416 34.7173C44.2067 34.4306 44.2032 34.1929 44.1312 34.0043C44.076 33.8051 43.9664 33.6869 43.8026 33.6497C43.5432 33.5908 43.2367 33.7078 42.883 34.0007L42.7788 33.8909C42.8147 33.6694 42.9214 33.4208 43.0988 33.1453C43.2763 32.8697 43.512 32.6218 43.8062 32.4015C44.1034 32.1675 44.4511 31.9952 44.8495 31.8847C45.2615 31.7773 45.7133 31.7794 46.2048 31.891C46.9283 32.0554 47.4059 32.3864 47.6374 32.884C47.8721 33.368 47.9227 33.9035 47.7894 34.4906C47.7677 34.5861 47.7376 34.687 47.6991 34.7931C47.6774 34.8886 47.6489 34.9827 47.6135 35.0751C48.3066 34.2994 48.972 33.7398 49.6099 33.3966C50.2645 33.0428 50.8239 32.9186 51.2881 33.024C51.725 33.1233 52.007 33.3668 52.1343 33.7546C52.2616 34.1424 52.2709 34.5752 52.1624 35.0531C52.0632 35.49 51.8737 35.9135 51.5939 36.3237C51.3277 36.737 50.9899 37.0551 50.5803 37.2779C50.1876 37.4902 49.7538 37.5353 49.2791 37.4131L49.2065 37.3535C49.2734 36.9955 49.221 36.6892 49.049 36.4348C48.8771 36.1804 48.6546 36.0222 48.3816 35.9602C48.013 35.8765 47.623 35.9817 47.2116 36.2759C46.8139 36.5732 46.5359 37.07 46.3778 37.7663C46.2817 38.1895 46.2256 38.6577 46.2095 39.1709C46.1935 39.6841 46.1467 40.1113 46.0692 40.4526C45.9761 40.8622 45.7953 41.2159 45.5266 41.5138C45.258 41.8117 44.9502 42.029 44.6034 42.1655C44.2596 42.2884 43.9103 42.3096 43.5553 42.229ZM55.1734 44.6466C54.1664 44.4725 53.3663 44.1282 52.7733 43.6136C52.1827 43.0853 51.7791 42.4614 51.5625 41.742C51.3482 41.0088 51.3079 40.2559 51.4415 39.4834C51.5679 38.7522 51.8322 38.0449 52.2345 37.3615C52.653 36.6666 53.1838 36.0622 53.8267 35.5482C54.4835 35.0366 55.2303 34.6613 56.0673 34.4224C56.918 34.1859 57.8331 34.1523 58.8126 34.3216C60.0265 34.5315 60.8617 34.96 61.3182 35.6073C61.7908 36.2431 61.9603 36.9472 61.8267 37.7198C61.7122 38.382 61.4268 38.9648 60.9703 39.4684C60.53 39.9606 59.9904 40.3291 59.3513 40.5738C58.7147 40.8047 58.0515 40.8606 57.3617 40.7413C57.003 40.6793 56.647 40.5609 56.2936 40.3862C55.9402 40.2114 55.6044 39.9758 55.2863 39.6792C55.2074 40.5465 55.3484 41.2102 55.7093 41.6704C56.0702 42.1306 56.5472 42.412 57.1404 42.5145C57.5543 42.5861 57.9812 42.5817 58.4213 42.5015C58.8638 42.4075 59.279 42.2662 59.6668 42.0775C60.0708 41.8774 60.3944 41.6492 60.6376 41.3929L60.7646 41.5214C60.6405 42.2388 60.3827 42.8264 59.9909 43.2844C59.6154 43.7309 59.1587 44.0711 58.621 44.3049C58.0833 44.5387 57.5117 44.6814 56.906 44.733C56.3166 44.7732 55.7391 44.7444 55.1734 44.6466ZM56.6153 39.1418C57.0567 39.2181 57.4369 39.1559 57.7557 38.9553C58.077 38.7409 58.3364 38.4732 58.5339 38.1521C58.7315 37.8311 58.853 37.5395 58.8983 37.2774C58.9531 36.9601 58.9088 36.6825 58.7652 36.4446C58.624 36.1929 58.3948 36.0396 58.0775 35.9847C57.8292 35.9418 57.5378 35.9837 57.2033 36.1106C56.8826 36.2399 56.5668 36.505 56.2559 36.9059C55.9475 37.293 55.692 37.8668 55.4895 38.6275C55.8951 38.9107 56.2704 39.0821 56.6153 39.1418ZM68.3992 46.3858C67.8829 46.3434 67.4321 46.1027 67.0468 45.6637C66.6625 45.2107 66.5008 44.6145 66.5615 43.875C66.5913 43.5122 66.674 43.1046 66.8095 42.6522C66.945 42.1997 67.088 41.7409 67.2386 41.2757C67.4031 40.8116 67.5514 40.3743 67.6835 39.9637C67.8155 39.5531 67.8924 39.2153 67.9142 38.9502C67.9371 38.6711 67.8991 38.4503 67.8001 38.2876C67.7022 38.111 67.5626 38.0153 67.3812 38.0004C67.144 37.9809 66.8744 38.0992 66.5724 38.3553L66.4537 38.2613C66.4581 38.0369 66.5287 37.7758 66.6655 37.478C66.8024 37.1802 66.9939 36.901 67.24 36.6402C67.5013 36.3667 67.8214 36.1472 68.2002 35.9816C68.579 35.8161 69.0196 35.7539 69.5219 35.7952C70.2614 35.8559 70.7878 36.1169 71.1011 36.5781C71.4295 37.0265 71.5685 37.5576 71.5181 38.1716C71.4997 38.3948 71.461 38.6094 71.402 38.8152C71.7305 38.4067 72.1288 38.004 72.5969 37.607C73.0661 37.196 73.5709 36.8652 74.1112 36.6146C74.6655 36.3651 75.2217 36.2633 75.7798 36.3092C76.4356 36.363 76.8649 36.609 77.0677 37.0471C77.2705 37.4852 77.3462 38.0181 77.2946 38.646C77.2465 39.232 77.1321 39.8548 76.9515 40.5142C76.7709 41.1736 76.5921 41.8121 76.4149 42.4297C76.2389 43.0333 76.1337 43.5444 76.0994 43.963C76.0535 44.5211 76.191 44.8134 76.512 44.8397C76.6794 44.8535 76.8299 44.8167 76.9635 44.7293C77.0983 44.628 77.1906 44.5303 77.2405 44.436L77.3818 44.5108C77.3394 45.0271 77.1557 45.4685 76.8306 45.8352C76.5194 46.2029 76.1384 46.4807 75.6875 46.6684C75.2378 46.8422 74.7897 46.9107 74.3432 46.874C73.799 46.8293 73.3331 46.6014 72.9454 46.1903C72.5578 45.7792 72.3989 45.1481 72.4688 44.297C72.5101 43.7946 72.6176 43.2556 72.7913 42.6799C72.9789 42.1054 73.1579 41.5511 73.3282 41.0173C73.4985 40.4834 73.5979 40.0421 73.6266 39.6933C73.6438 39.484 73.6151 39.3201 73.5405 39.2016C73.4811 39.0703 73.3537 38.9966 73.1583 38.9806C72.8374 38.9542 72.4696 39.0715 72.0548 39.3324C71.654 39.5945 71.294 39.9582 70.9749 40.4237C70.6697 40.8902 70.493 41.4165 70.4449 42.0026C70.4139 42.3793 70.426 42.7455 70.481 43.1012C70.5501 43.4581 70.568 43.8388 70.5347 44.2435C70.4728 44.9969 70.2305 45.5529 69.8077 45.9115C69.385 46.2701 68.9154 46.4282 68.3992 46.3858ZM83.3187 47.2719C82.2967 47.2674 81.4506 47.0608 80.7804 46.6519C80.1102 46.229 79.6086 45.6808 79.2755 45.0074C78.9424 44.3199 78.7776 43.5842 78.781 42.8002C78.7842 42.0582 78.9274 41.3168 79.2106 40.5761C79.5078 39.8213 79.9308 39.1372 80.4795 38.5235C81.0421 37.9099 81.7162 37.4158 82.5019 37.0412C83.3015 36.6667 84.1983 36.4815 85.1923 36.4858C86.4243 36.4912 87.3191 36.775 87.8766 37.3374C88.4483 37.8859 88.7324 38.5521 88.729 39.3361C88.7261 40.0081 88.5414 40.6303 88.175 41.2028C87.8226 41.7612 87.3516 42.2142 86.7621 42.5617C86.1726 42.8951 85.5279 43.0603 84.8279 43.0573C84.4639 43.0558 84.0932 42.9982 83.7157 42.8845C83.3382 42.7709 82.9679 42.5943 82.6049 42.3547C82.6712 43.223 82.9205 43.8541 83.3528 44.248C83.7851 44.6418 84.3022 44.8401 84.9042 44.8427C85.3242 44.8445 85.7445 44.7693 86.1652 44.6171C86.5859 44.4509 86.9718 44.2426 87.3229 43.9921C87.6881 43.7277 87.9693 43.4489 88.1665 43.1557L88.3131 43.2614C88.3099 43.9894 88.1533 44.6117 87.843 45.1284C87.5468 45.6311 87.1531 46.0424 86.6617 46.3623C86.1703 46.6822 85.6303 46.9178 85.0416 47.0693C84.467 47.2068 83.8927 47.2743 83.3187 47.2719ZM83.8262 41.604C84.2742 41.6059 84.6387 41.4815 84.9198 41.2307C85.201 40.9659 85.4123 40.6588 85.5538 40.3094C85.6953 39.96 85.7666 39.6523 85.7678 39.3863C85.7692 39.0644 85.6793 38.798 85.4982 38.5872C85.3172 38.3624 85.0657 38.2493 84.7437 38.2479C84.4917 38.2468 84.2113 38.3366 83.9025 38.5173C83.6077 38.698 83.3404 39.0119 83.1004 39.4588C82.8606 39.8918 82.7039 40.5001 82.6306 41.2838C83.0777 41.4958 83.4762 41.6025 83.8262 41.604ZM93.4728 46.8482C92.7483 46.919 92.1357 46.7679 91.635 46.3949C91.1469 46.0066 90.8592 45.3665 90.772 44.4748C90.7284 44.0289 90.7315 43.5574 90.7814 43.0601C90.8438 42.5476 90.9145 42.0484 90.9936 41.5624C91.0852 41.0611 91.1608 40.6106 91.2201 40.2109C91.2795 39.8112 91.2976 39.493 91.2745 39.2561C91.2513 39.0192 91.1862 38.8568 91.0791 38.7688C90.9707 38.6669 90.8468 38.6227 90.7075 38.6363C90.5681 38.65 90.4336 38.7124 90.3038 38.8235C90.1726 38.9207 90.0671 39.0647 89.9873 39.2554L89.814 39.209C89.786 38.635 89.8985 38.1317 90.1516 37.699C90.4047 37.2663 90.737 36.9243 91.1485 36.6731C91.5739 36.4205 92.0096 36.2724 92.4554 36.2288C92.8177 36.1933 93.1735 36.2359 93.5229 36.3565C93.871 36.4631 94.1575 36.6602 94.3825 36.9476C94.6202 37.2198 94.7545 37.5865 94.7855 38.0476C94.8016 38.3555 94.7826 38.7372 94.7287 39.1926C94.6748 39.648 94.6033 40.1403 94.5144 40.6695C94.4381 41.1833 94.3743 41.6819 94.3231 42.1652C94.2719 42.6485 94.264 43.0712 94.2994 43.4335C94.3294 43.74 94.395 43.9798 94.4964 44.1528C94.6116 44.3244 94.7807 44.3992 95.0036 44.3774C95.2405 44.3543 95.5417 44.1982 95.9074 43.9093C96.273 43.6203 96.6277 43.2199 96.9715 42.708C96.8116 41.9359 96.7023 41.2503 96.6437 40.6511C96.4939 39.1184 96.6085 37.9889 96.9876 37.2626C97.3806 36.5349 97.9185 36.1376 98.6012 36.0709C99.1028 36.0218 99.4606 36.1556 99.6744 36.4723C99.8882 36.789 100.022 37.226 100.077 37.7834C100.157 38.6054 100.094 39.3924 99.8858 40.1442C99.678 40.896 99.4071 41.5062 99.0731 41.975C99.1623 42.5992 99.3354 43.0747 99.5924 43.4012C99.8633 43.7264 100.159 43.8733 100.48 43.8419C100.8 43.8106 101.11 43.5974 101.409 43.2025C101.722 42.8061 101.967 42.2195 102.144 41.4426C102.321 40.6656 102.374 39.6969 102.303 38.5363C102.225 37.6014 102.096 36.9248 101.914 36.5065L101.904 36.402C102.068 36.0624 102.348 35.7607 102.744 35.4969C103.153 35.2178 103.573 35.0571 104.005 35.0149C104.312 34.9849 104.599 35.0482 104.868 35.2048C105.149 35.3462 105.389 35.6462 105.589 36.1049C105.787 36.5498 105.908 37.2131 105.952 38.095C106.03 39.3252 105.934 40.4249 105.663 41.3938C105.391 42.3489 104.999 43.1678 104.489 43.8507C103.993 44.5322 103.434 45.0652 102.81 45.4497C102.187 45.8343 101.554 46.0579 100.913 46.1205C100.189 46.1914 99.5079 46.061 98.8706 45.7295C98.2319 45.384 97.7239 44.864 97.3465 44.1694C96.7835 44.8856 96.1888 45.4924 95.5622 45.9897C94.9496 46.4857 94.2531 46.7719 93.4728 46.8482ZM114.122 44.2986C113.531 44.4127 113.018 44.3049 112.584 43.9753C112.149 43.6457 111.866 43.1372 111.733 42.4499C111.661 42.0788 111.617 41.5884 111.599 40.9787C111.578 40.3553 111.568 39.6729 111.567 38.9316C111.578 38.1738 111.58 37.4105 111.574 36.6417C111.566 35.8591 111.542 35.108 111.503 34.3884C111.463 33.6688 111.392 33.0409 111.289 32.5048C111.159 31.8312 110.975 31.3605 110.738 31.0926L110.714 30.9689C110.95 30.5668 111.231 30.2488 111.556 30.0149C111.882 29.7809 112.217 29.6308 112.56 29.5644C113.083 29.4636 113.565 29.5629 114.008 29.8624C114.451 30.1618 114.744 30.6827 114.887 31.425C114.964 31.8237 115.003 32.3223 115.005 32.9208C115.006 33.5194 114.993 34.1494 114.963 34.811C114.934 35.4725 114.897 36.0928 114.852 36.6718C115.015 36.1128 115.262 35.5447 115.593 34.9675C115.934 34.374 116.348 33.8592 116.834 33.4231C117.334 32.9844 117.886 32.7066 118.491 32.5899C119.179 32.4572 119.68 32.5813 119.996 32.9623C120.326 33.3407 120.552 33.846 120.674 34.4783C120.785 35.0557 120.843 35.6862 120.847 36.3699C120.848 37.0399 120.845 37.6892 120.838 38.3179C120.828 38.9329 120.862 39.4397 120.939 39.8383C121.05 40.4157 121.278 40.6711 121.622 40.6048C121.773 40.5756 121.895 40.5091 121.989 40.4054C122.095 40.2853 122.164 40.165 122.198 40.0444L122.362 40.1196C122.465 40.6557 122.422 41.1346 122.233 41.5561C122.043 41.9777 121.761 42.3245 121.386 42.5966C121.024 42.866 120.631 43.0419 120.204 43.1241C119.641 43.2329 119.096 43.1456 118.571 42.862C118.043 42.5647 117.697 41.9899 117.532 41.1377C117.44 40.6566 117.401 40.1223 117.415 39.5348C117.444 38.9446 117.47 38.3765 117.493 37.8302C117.513 37.2702 117.488 36.8115 117.419 36.4541C117.329 35.9868 117.119 35.7849 116.789 35.8486C116.487 35.907 116.186 36.1219 115.887 36.4934C115.588 36.8648 115.345 37.3038 115.158 37.8105C114.984 38.3146 114.898 38.7945 114.901 39.2503C114.895 39.3656 114.906 39.4988 114.935 39.65C115.002 39.9937 115.113 40.3143 115.271 40.6119C115.442 40.9068 115.568 41.2674 115.651 41.6935C115.773 42.3258 115.71 42.8869 115.462 43.3767C115.215 43.8665 114.768 44.1738 114.122 44.2986ZM128.625 41.3262C127.631 41.5636 126.76 41.5629 126.012 41.3241C125.261 41.0716 124.644 40.6576 124.161 40.082C123.675 39.4928 123.341 38.817 123.159 38.0544C122.986 37.3327 122.95 36.5785 123.05 35.7917C123.16 34.9881 123.41 34.2233 123.798 33.4973C124.199 32.7681 124.737 32.1286 125.412 31.5789C126.1 31.0259 126.928 30.6339 127.895 30.4031C129.093 30.1169 130.03 30.1812 130.705 30.5958C131.39 30.9935 131.823 31.5737 132.005 32.3362C132.161 32.9899 132.129 33.6381 131.908 34.2809C131.698 34.9069 131.347 35.4584 130.857 35.9354C130.363 36.3988 129.776 36.7118 129.095 36.8744C128.741 36.9589 128.367 36.9906 127.973 36.9695C127.58 36.9483 127.178 36.8643 126.769 36.7173C127.038 37.5453 127.43 38.0996 127.943 38.38C128.456 38.6605 129.006 38.7309 129.591 38.591C130 38.4935 130.39 38.321 130.763 38.0737C131.132 37.8127 131.458 37.5191 131.74 37.1927C132.032 36.8494 132.24 36.512 132.362 36.1805L132.529 36.2485C132.698 36.9566 132.693 37.5983 132.514 38.1737C132.345 38.7322 132.06 39.225 131.658 39.652C131.256 40.079 130.787 40.4357 130.251 40.722C129.725 40.9915 129.183 41.1929 128.625 41.3262ZM127.778 35.6991C128.214 35.595 128.538 35.3879 128.752 35.0778C128.963 34.754 129.095 34.4057 129.15 34.0327C129.205 33.6598 129.202 33.344 129.14 33.0852C129.065 32.772 128.915 32.5345 128.689 32.3725C128.46 32.1969 128.189 32.1465 127.876 32.2213C127.631 32.2798 127.379 32.4333 127.122 32.6819C126.878 32.9272 126.693 33.2954 126.565 33.7864C126.435 34.2638 126.426 34.8919 126.54 35.6707C127.025 35.7709 127.437 35.7804 127.778 35.6991ZM142.528 37.6765C142.055 37.806 141.601 37.7637 141.165 37.5494C140.728 37.3351 140.414 36.8769 140.222 36.1748C140.203 36.1073 140.185 36.0398 140.166 35.9723C140.148 35.9048 140.136 35.8354 140.131 35.7642C139.948 36.6853 139.654 37.412 139.248 37.9443C138.852 38.4593 138.397 38.7871 137.884 38.9278C137.412 39.0574 136.922 39.0175 136.414 38.8082C135.903 38.5854 135.431 38.1852 134.996 37.6074C134.562 37.0297 134.219 36.2817 133.968 35.3636C133.708 34.4185 133.605 33.5395 133.658 32.7265C133.725 31.9099 133.904 31.1858 134.195 30.5543C134.486 29.9228 134.853 29.4084 135.296 29.0112C135.735 28.6005 136.198 28.3285 136.684 28.1953C137.224 28.0472 137.756 28.0827 138.281 28.3018C138.802 28.5074 139.241 28.9457 139.599 29.6169C139.577 29.3763 139.547 29.1596 139.508 28.9669C139.483 28.7704 139.462 28.6385 139.443 28.571C139.357 28.2027 139.465 27.8827 139.768 27.6109C140.084 27.3355 140.459 27.1385 140.891 27.02C141.269 26.9164 141.647 26.8925 142.025 26.9485C142.403 27.0045 142.701 27.1913 142.919 27.5091L142.993 27.6195C142.931 28.0284 142.889 28.5117 142.868 29.0692C142.847 29.6266 142.846 30.2074 142.867 30.8115C142.883 31.4021 142.925 31.9785 142.992 32.5408C143.056 33.0896 143.143 33.5665 143.254 33.9716C143.376 34.4171 143.509 34.7147 143.651 34.8643C143.79 35.0004 143.927 35.05 144.062 35.0129C144.292 34.95 144.456 34.7306 144.557 34.3547L144.741 34.3913C144.867 34.8504 144.833 35.3097 144.64 35.7692C144.446 36.2286 144.158 36.6342 143.776 36.9859C143.389 37.3241 142.973 37.5543 142.528 37.6765ZM138.521 36.0095C138.872 35.9132 139.172 35.4972 139.42 34.7614C139.678 34.0083 139.802 33.0019 139.79 31.7421C139.784 31.6132 139.779 31.491 139.777 31.3756C139.77 31.2467 139.759 31.1264 139.743 31.0146C139.39 30.5743 139.064 30.2862 138.766 30.1503C138.477 29.9972 138.218 29.9521 137.988 30.0151C137.651 30.1076 137.384 30.3769 137.186 30.8229C136.999 31.2517 136.885 31.762 136.844 32.3539C136.817 32.9421 136.877 33.5062 137.025 34.0463C137.229 34.7889 137.461 35.3202 137.723 35.6404C137.999 35.9568 138.265 36.0798 138.521 36.0095ZM149.038 35.8261C148.554 35.9659 148.067 35.895 147.578 35.6137C147.085 35.3188 146.734 34.8082 146.524 34.0819C146.423 33.7321 146.349 33.3237 146.302 32.8565C146.254 32.3893 146.218 31.9116 146.194 31.4232C146.166 30.9213 146.134 30.457 146.098 30.0302C146.058 29.5899 146 29.2352 145.922 28.9662C145.841 28.6838 145.723 28.4773 145.569 28.347C145.424 28.1993 145.271 28.1487 145.109 28.1953C144.854 28.2691 144.642 28.5196 144.474 28.947L144.33 28.9012C144.254 28.6899 144.227 28.4208 144.25 28.0938C144.272 27.7668 144.358 27.4358 144.509 27.1008C144.657 26.7523 144.878 26.4335 145.173 26.1442C145.482 25.8511 145.879 25.6347 146.363 25.4949C147.076 25.2892 147.654 25.3482 148.097 25.672C148.536 25.9824 148.839 26.4267 149.006 27.0051C149.033 27.0993 149.056 27.2021 149.073 27.3136C149.101 27.4078 149.121 27.5039 149.135 27.6019C149.367 26.5878 149.679 25.7764 150.072 25.1677C150.474 24.5416 150.903 24.1626 151.361 24.0306C151.791 23.9064 152.156 23.9833 152.455 24.2614C152.753 24.5394 152.971 24.9138 153.107 25.3846C153.231 25.815 153.27 26.2774 153.223 26.7718C153.19 27.2622 153.047 27.704 152.797 28.0969C152.555 28.4726 152.197 28.7216 151.723 28.844L151.63 28.827C151.516 28.4811 151.322 28.2384 151.049 28.0987C150.775 27.9591 150.504 27.9281 150.235 28.0057C149.872 28.1105 149.581 28.3911 149.363 28.8474C149.159 29.2999 149.155 29.8691 149.353 30.5551C149.474 30.9721 149.651 31.4091 149.885 31.8662C150.119 32.3233 150.284 32.7199 150.381 33.0562C150.497 33.4597 150.51 33.8568 150.419 34.2474C150.328 34.6381 150.163 34.977 149.925 35.2641C149.684 35.5378 149.388 35.7252 149.038 35.8261ZM159.157 32.9064C158.727 33.0305 158.289 33.0547 157.845 32.9789C157.41 32.8858 157.011 32.6656 156.649 32.3184C156.3 31.9674 156.033 31.469 155.846 30.8234C155.745 30.4736 155.647 30.0066 155.551 29.4222C155.456 28.8378 155.365 28.1938 155.278 27.4902C155.205 26.7827 155.132 26.0752 155.059 25.3677C154.794 25.4588 154.54 25.5613 154.296 25.6754C154.065 25.7856 153.837 25.9025 153.61 26.0262L153.529 25.8966C153.705 25.4961 153.908 25.1389 154.138 24.8249C154.368 24.5108 154.623 24.2333 154.903 23.9922C154.822 23.0539 154.749 22.2445 154.684 21.5639C154.615 20.8699 154.563 20.4623 154.528 20.3412C154.462 20.1126 154.582 19.8738 154.889 19.6249C155.21 19.3722 155.592 19.1818 156.036 19.0538C156.426 18.9413 156.811 18.9105 157.19 18.9615C157.582 19.0086 157.889 19.1895 158.111 19.5043C158.054 19.6083 158.027 19.944 158.03 20.5113C158.029 21.0651 158.055 21.7352 158.107 22.5216C158.367 22.4614 158.633 22.3991 158.906 22.335C159.179 22.2709 159.46 22.2115 159.75 22.1569C159.801 22.2299 159.846 22.3115 159.887 22.4018C159.927 22.492 159.963 22.591 159.994 22.6986C160.052 22.9004 160.083 23.132 160.085 23.3936C160.097 23.6378 160.09 23.8657 160.064 24.0773C159.733 24.1435 159.423 24.2039 159.133 24.2584C158.838 24.2996 158.555 24.3522 158.282 24.4164C158.341 25.0258 158.407 25.6333 158.48 26.2389C158.566 26.8406 158.65 27.3846 158.732 27.8709C158.828 28.3534 158.914 28.7291 158.992 28.9982C159.155 29.5631 159.364 29.9107 159.62 30.0408C159.89 30.167 160.173 30.1875 160.468 30.1021C160.737 30.0245 160.964 29.9009 161.148 29.7312C161.332 29.5615 161.45 29.3891 161.502 29.214L161.721 29.2163C161.799 29.7911 161.724 30.3374 161.494 30.8553C161.261 31.3597 160.935 31.7961 160.517 32.1645C160.095 32.5194 159.642 32.7667 159.157 32.9064ZM166.784 30.8709C165.947 31.1008 165.22 31.177 164.604 31.0995C163.987 31.0221 163.496 30.8449 163.129 30.5681C162.759 30.2777 162.524 29.9503 162.424 29.5858C162.283 29.0728 162.388 28.5575 162.74 28.04C163.088 27.5089 163.653 27.1358 164.436 26.9207C164.625 27.6092 164.865 28.1386 165.155 28.5089C165.442 28.8657 165.744 29.0948 166.063 29.1961C166.394 29.2938 166.688 29.3073 166.945 29.2369C167.255 29.1516 167.488 28.9934 167.642 28.7623C167.806 28.5139 167.851 28.2548 167.777 27.9848C167.673 27.6068 167.387 27.3298 166.917 27.1538C166.448 26.9779 165.854 26.7997 165.137 26.6192C164.775 26.5155 164.378 26.3922 163.947 26.2494C163.512 26.093 163.118 25.8745 162.765 25.594C162.408 25.2999 162.161 24.9031 162.024 24.4036C161.879 23.8771 161.9 23.3706 162.086 22.884C162.285 22.3937 162.597 21.945 163.023 21.5378C163.444 21.1171 163.927 20.7595 164.47 20.4651C165.01 20.1571 165.557 19.9271 166.11 19.7751C167.15 19.4896 167.99 19.4838 168.631 19.7576C169.273 20.0315 169.659 20.4047 169.788 20.8772C169.9 21.2822 169.797 21.7023 169.481 22.1376C169.165 22.5728 168.589 22.9054 167.752 23.1353C167.576 22.4431 167.297 21.9825 166.915 21.7536C166.529 21.5112 166.167 21.4363 165.83 21.529C165.587 21.5958 165.404 21.7256 165.283 21.9186C165.162 22.1116 165.14 22.3499 165.218 22.6334C165.307 22.9574 165.486 23.2131 165.756 23.4005C166.035 23.5706 166.355 23.7076 166.718 23.8113C167.09 23.8978 167.467 23.9757 167.849 24.045C168.367 24.1349 168.862 24.2458 169.334 24.3775C169.806 24.5093 170.213 24.6952 170.555 24.9352C170.896 25.1753 171.128 25.518 171.251 25.9635C171.418 26.571 171.324 27.2066 170.969 27.8703C170.624 28.5168 170.084 29.1152 169.349 29.6654C168.611 30.2021 167.756 30.6039 166.784 30.8709ZM179.167 31.8433C178.771 31.9345 178.379 31.946 177.99 31.8777C177.604 31.8231 177.309 31.6682 177.107 31.4132C177.113 29.9462 177.095 28.6503 177.051 27.5254C177.021 26.3973 176.97 25.3962 176.897 24.5221C176.825 23.648 176.736 22.8568 176.63 22.1484C176.521 21.4265 176.398 20.7365 176.261 20.0785C175.803 20.2127 175.371 20.3627 174.964 20.5284C174.553 20.6805 174.204 20.8473 173.915 21.0287L173.841 20.8949C174.146 20.4081 174.48 19.9863 174.843 19.6296C175.203 19.2593 175.575 18.9435 175.96 18.6823C175.699 17.55 175.638 16.5657 175.775 15.7294C175.913 14.8931 176.187 14.1833 176.599 13.5999C177.024 13.0134 177.527 12.5455 178.107 12.1962C178.688 11.8469 179.291 11.5999 179.919 11.4552C180.683 11.2791 181.366 11.2509 181.968 11.3707C182.568 11.4768 183.053 11.681 183.424 11.9833C183.806 12.2688 184.041 12.6025 184.129 12.9845C184.236 13.4483 184.073 13.9242 183.639 14.412C183.22 14.8967 182.456 15.2596 181.347 15.5008C181.358 15.2972 181.353 15.1188 181.332 14.9656C181.321 14.7956 181.3 14.6424 181.269 14.506C181.149 13.9876 180.938 13.6339 180.636 13.4449C180.331 13.2424 180.021 13.1772 179.708 13.2496C179.217 13.3628 178.856 13.762 178.626 14.4472C178.393 15.1187 178.407 16.0206 178.668 17.1529L178.758 17.5417C179.219 17.3634 179.717 17.1841 180.25 17.0037C180.794 16.8066 181.299 16.6325 181.767 16.4815C182.249 16.3273 182.62 16.2204 182.879 16.1606C183.37 16.0474 183.776 16.0328 184.097 16.1168C184.415 16.1871 184.667 16.3157 184.854 16.5026C185.041 16.6894 185.18 16.8872 185.271 17.0961C185.359 17.2913 185.42 17.4639 185.455 17.614C185.546 18.0096 185.579 18.4618 185.552 18.9708C185.537 19.4629 185.495 19.9682 185.428 20.4865C185.374 21.0017 185.328 21.4865 185.289 21.9409C185.264 22.3921 185.286 22.7678 185.355 23.0679C185.415 23.3271 185.505 23.5003 185.625 23.5874C185.76 23.6714 185.888 23.6992 186.011 23.6709C186.134 23.6426 186.242 23.5817 186.335 23.4884C186.439 23.3782 186.507 23.2691 186.54 23.161L186.693 23.1689C186.809 23.6737 186.775 24.1485 186.59 24.5934C186.416 25.0215 186.156 25.3903 185.811 25.6997C185.462 25.9956 185.077 26.1923 184.654 26.2898C184.122 26.4124 183.603 26.3452 183.099 26.088C182.591 25.8171 182.255 25.327 182.092 24.6176C181.997 24.2084 181.952 23.7304 181.955 23.1837C181.969 22.6202 181.993 22.0399 182.028 21.4428C182.076 20.8426 182.103 20.276 182.11 19.7429C182.113 19.1962 182.065 18.7402 181.967 18.375C181.844 18.4034 181.701 18.4364 181.537 18.4741C181.37 18.4982 181.191 18.5323 181 18.5763C180.7 18.6455 180.388 18.7247 180.064 18.8138C179.74 18.9029 179.453 18.9978 179.203 19.0985L179.425 20.0603C179.579 20.7288 179.732 21.5483 179.884 22.519C180.046 23.4729 180.201 24.644 180.349 26.0323C180.493 27.407 180.611 29.0681 180.7 31.0157C180.347 31.4133 179.836 31.6892 179.167 31.8433ZM190.808 24.9826C190.298 25.0764 189.8 24.9617 189.314 24.6385C188.825 24.3015 188.513 23.7681 188.379 23.0384C188.313 22.6804 188.286 22.2653 188.299 21.7932C188.311 21.3211 188.33 20.8408 188.354 20.3524C188.391 19.8615 188.421 19.4006 188.441 18.9698C188.461 18.539 188.447 18.1928 188.399 17.9312C188.348 17.6558 188.254 17.4526 188.116 17.3214C187.975 17.1764 187.816 17.1204 187.637 17.1534C187.403 17.1965 187.173 17.3811 186.949 17.7072L186.809 17.6474C186.755 17.4296 186.755 17.1591 186.809 16.8359C186.864 16.5127 186.976 16.1932 187.145 15.8772C187.326 15.545 187.578 15.2496 187.9 14.9909C188.223 14.7322 188.632 14.5573 189.128 14.466C189.857 14.3316 190.434 14.4462 190.856 14.8096C191.291 15.1568 191.563 15.6333 191.675 16.2391C191.715 16.4594 191.734 16.6766 191.731 16.8907C191.941 16.4107 192.221 15.9179 192.569 15.4125C192.915 14.8934 193.316 14.4423 193.772 14.0594C194.242 13.6739 194.752 13.4305 195.303 13.3291C195.95 13.2099 196.429 13.3353 196.739 13.7053C197.049 14.0752 197.261 14.57 197.375 15.1896C197.482 15.7679 197.534 16.3989 197.531 17.0826C197.529 17.7663 197.523 18.4293 197.513 19.0717C197.501 19.7004 197.533 20.2212 197.609 20.6343C197.71 21.185 197.919 21.4312 198.236 21.3729C198.401 21.3425 198.537 21.2677 198.643 21.1485C198.747 21.0156 198.81 20.8971 198.834 20.7931L198.99 20.8284C199.084 21.3379 199.021 21.812 198.803 22.2507C198.599 22.6869 198.303 23.0545 197.917 23.3534C197.528 23.6385 197.114 23.8216 196.673 23.9027C196.136 24.0016 195.627 23.9032 195.145 23.6075C194.664 23.3118 194.346 22.744 194.191 21.9041C194.1 21.4084 194.063 20.86 194.08 20.2589C194.112 19.6553 194.14 19.0736 194.165 18.5138C194.19 17.954 194.171 17.502 194.107 17.1578C194.069 16.9513 193.999 16.8005 193.896 16.7056C193.804 16.5944 193.662 16.5565 193.469 16.592C193.153 16.6503 192.828 16.8595 192.496 17.2196C192.177 17.5772 191.925 18.0223 191.738 18.5549C191.565 19.085 191.532 19.6391 191.639 20.2174C191.707 20.5892 191.814 20.9395 191.96 21.2685C192.12 21.595 192.237 21.9579 192.31 22.3572C192.447 23.1007 192.358 23.7007 192.044 24.1572C191.729 24.6137 191.317 24.8888 190.808 24.9826ZM203.189 22.8854C202.69 22.9539 202.195 22.8452 201.703 22.5593C201.226 22.2714 200.803 21.8137 200.434 21.1859C200.079 20.5563 199.837 19.7699 199.708 18.8267C199.575 17.8558 199.595 16.9699 199.767 16.169C199.94 15.3681 200.212 14.6737 200.584 14.0857C200.968 13.4821 201.404 13.0054 201.893 12.6557C202.396 12.3042 202.904 12.0932 203.417 12.0228C203.986 11.9449 204.517 12.0558 205.01 12.3556C205.501 12.6415 205.882 13.1475 206.151 13.8737C206.181 13.1631 206.194 12.49 206.192 11.8544C206.202 11.2031 206.173 10.6347 206.107 10.1492C206.019 9.51116 205.872 9.05792 205.666 8.78946L205.649 8.66463C205.918 8.26027 206.229 7.94919 206.581 7.73141C206.944 7.49786 207.299 7.35731 207.646 7.30977C208.104 7.24702 208.512 7.33942 208.871 7.58696C209.228 7.82063 209.443 8.201 209.515 8.72807C209.555 9.01934 209.565 9.45598 209.546 10.038C209.527 10.62 209.499 11.288 209.461 12.0422C209.421 12.7824 209.378 13.5514 209.332 14.349C209.298 15.1309 209.281 15.8822 209.281 16.6029C209.278 17.3097 209.313 17.9197 209.383 18.4329C209.442 18.8629 209.531 19.204 209.65 19.4561C209.782 19.6925 209.951 19.7964 210.16 19.7678C210.312 19.7469 210.458 19.6775 210.597 19.5595C210.749 19.4257 210.842 19.2856 210.879 19.1393L211.039 19.2234C211.101 19.6811 211.014 20.1241 210.776 20.5524C210.536 20.9668 210.21 21.3224 209.799 21.619C209.387 21.9157 208.946 22.0963 208.474 22.161C207.961 22.2313 207.533 22.1487 207.189 21.9131C206.858 21.6618 206.6 21.3228 206.414 20.896C206.228 20.4693 206.096 20.0211 206.018 19.5514C205.725 20.609 205.319 21.4135 204.801 21.965C204.295 22.5007 203.758 22.8075 203.189 22.8854ZM204.221 20.052C204.582 20.0026 204.939 19.6215 205.294 18.9088C205.648 18.196 205.906 17.1927 206.068 15.8987L206.105 15.2366C205.812 14.7538 205.52 14.4265 205.228 14.2546C204.948 14.0669 204.69 13.9892 204.454 14.0215C204.107 14.069 203.808 14.3079 203.556 14.7381C203.302 15.1544 203.119 15.6741 203.007 16.2972C202.906 16.9044 202.901 17.534 202.99 18.1859C203.076 18.8101 203.233 19.2901 203.463 19.626C203.691 19.9481 203.944 20.0901 204.221 20.052ZM221.055 25.0017C220.371 25.056 219.79 24.8985 219.311 24.5291C218.833 24.1598 218.564 23.6053 218.505 22.8657C218.442 22.0702 218.647 21.113 219.12 19.9941C219.025 20.0297 218.929 20.0584 218.832 20.0801C218.736 20.1018 218.638 20.1165 218.541 20.1243C217.731 20.1885 217.02 19.8938 216.406 19.2403C215.805 18.5717 215.455 17.6094 215.356 16.3533C215.266 15.2229 215.403 14.2079 215.767 13.3083C216.145 12.4076 216.657 11.6858 217.302 11.1431C217.947 10.6004 218.639 10.2997 219.379 10.2411C219.895 10.2001 220.373 10.2956 220.813 10.5276C221.252 10.7456 221.626 11.1302 221.937 11.6813C221.94 11.5407 221.937 11.4145 221.928 11.3029C221.919 11.1912 221.911 11.0865 221.903 10.9889C221.884 10.7516 222.05 10.5418 222.401 10.3595C222.751 10.1772 223.15 10.0684 223.597 10.0329C224.001 10.0008 224.384 10.0477 224.745 10.1736C225.106 10.2994 225.357 10.5393 225.498 10.8933L225.549 11.0156C225.433 11.1372 225.35 11.5089 225.301 12.1308C225.266 12.7515 225.229 13.6111 225.189 14.7096C225.16 15.4001 225.117 16.19 225.061 17.0792C225.004 17.9544 224.9 18.8475 224.747 19.7584C224.608 20.6543 224.393 21.4859 224.102 22.2532C223.813 23.0345 223.421 23.6695 222.926 24.1582C222.433 24.6608 221.809 24.942 221.055 25.0017ZM219.773 17.6039C220.178 17.5718 220.599 17.2085 221.035 16.5138C221.484 15.804 221.806 14.8165 222.001 13.5511C221.706 13.0268 221.418 12.6635 221.135 12.4612C220.865 12.2439 220.597 12.1457 220.332 12.1667C219.983 12.1944 219.669 12.3949 219.39 12.7681C219.11 13.1414 218.895 13.6079 218.742 14.1677C218.603 14.7124 218.556 15.2709 218.601 15.8431C218.648 16.4293 218.782 16.8751 219.002 17.1806C219.223 17.4861 219.48 17.6272 219.773 17.6039ZM219.922 22.669C220.397 22.6314 220.841 22.1257 221.255 21.1519C221.685 20.1909 221.93 18.8583 221.992 17.1541C221.045 18.6758 220.393 19.8439 220.037 20.6587C219.693 21.4584 219.534 22.0187 219.559 22.3397C219.578 22.577 219.699 22.6867 219.922 22.669ZM229.805 20.3003C229.176 20.3269 228.633 20.0906 228.178 19.5914C227.736 19.0916 227.497 18.4081 227.46 17.5408C227.44 17.0653 227.475 16.5524 227.564 16.0021C227.652 15.4519 227.742 14.9296 227.834 14.4353C227.916 14.0675 227.979 13.7285 228.022 13.4185C228.078 13.0938 228.102 12.8335 228.094 12.6377C228.083 12.3859 228.02 12.2065 227.903 12.0993C227.8 11.9915 227.679 11.9406 227.539 11.9465C227.399 11.9524 227.262 12.0073 227.126 12.1111C226.99 12.201 226.883 12.3386 226.807 12.524L226.636 12.4681C226.612 11.8946 226.731 11.3992 226.994 10.9817C227.257 10.5642 227.6 10.2414 228.025 10.0133C228.45 9.78514 228.886 9.6616 229.334 9.64268C229.697 9.62731 230.05 9.68945 230.392 9.82912C230.734 9.95481 231.016 10.1671 231.239 10.4659C231.476 10.7642 231.604 11.1441 231.624 11.6057C231.635 11.8855 231.608 12.2229 231.54 12.6181C231.487 13.0127 231.42 13.4219 231.34 13.8457C231.26 14.2834 231.181 14.7282 231.102 15.1799C231.036 15.6171 231.011 16.0035 231.025 16.3392C231.038 16.6469 231.098 16.8966 231.204 17.0883C231.31 17.28 231.461 17.3717 231.657 17.3634C232.02 17.3481 232.412 16.9952 232.831 16.3049C233.264 15.614 233.597 14.6961 233.829 13.5513C233.875 13.3251 233.914 13.0853 233.945 12.8317C233.977 12.5782 233.987 12.3185 233.975 12.0528C233.967 11.843 233.944 11.6337 233.907 11.4251C233.869 11.2025 233.818 10.9805 233.753 10.759L233.746 10.6122C233.954 10.225 234.229 9.92616 234.57 9.71555C234.926 9.50435 235.285 9.39107 235.649 9.37569C236.138 9.355 236.586 9.50422 236.992 9.82336C237.398 10.1425 237.614 10.6238 237.642 11.2672C237.658 11.6449 237.606 12.0884 237.488 12.5979C237.368 13.0934 237.236 13.6104 237.091 14.149C236.945 14.6737 236.813 15.1907 236.694 15.7002C236.575 16.2097 236.524 16.6602 236.541 17.0519C236.565 17.6254 236.78 17.9035 237.186 17.8864C237.298 17.8816 237.429 17.8481 237.581 17.7856C237.746 17.7086 237.894 17.5692 238.026 17.3674L238.174 17.4032C238.196 17.9067 238.075 18.3603 237.811 18.7637C237.562 19.1526 237.231 19.4609 236.821 19.6884C236.41 19.916 235.981 20.0392 235.533 20.0581C234.96 20.0824 234.433 19.8944 233.954 19.4943C233.488 19.0936 233.236 18.4177 233.195 17.4665L233.194 17.4246C232.662 18.428 232.097 19.1525 231.499 19.5981C230.901 20.0437 230.337 20.2778 229.805 20.3003ZM242.894 8.53895C242.334 8.54796 241.869 8.38741 241.5 8.05731C241.144 7.71299 240.962 7.28186 240.954 6.76393C240.945 6.204 241.147 5.71768 241.56 5.30498C241.974 4.89227 242.481 4.68108 243.083 4.67139C243.643 4.66238 244.101 4.83004 244.457 5.17436C244.826 5.51846 245.015 5.94947 245.023 6.46741C245.033 7.02733 244.83 7.51365 244.417 7.92636C244.003 8.32506 243.495 8.52926 242.894 8.53895ZM241.606 19.8801C241.06 19.8889 240.567 19.7078 240.127 19.3369C239.687 18.9519 239.46 18.3325 239.446 17.4786C239.438 16.9886 239.494 16.5327 239.613 16.1107C239.746 15.6745 239.893 15.2521 240.055 14.8434C240.23 14.4346 240.378 14.0401 240.498 13.6602C240.631 13.266 240.695 12.8799 240.689 12.5019C240.684 12.166 240.624 11.9289 240.51 11.7907C240.395 11.6385 240.261 11.5637 240.107 11.5662C239.869 11.57 239.64 11.7277 239.421 12.0393L239.273 11.9576C239.32 11.3968 239.487 10.9181 239.775 10.5214C240.076 10.1105 240.442 9.78955 240.873 9.55859C241.317 9.32741 241.756 9.20833 242.19 9.20135C242.722 9.19279 243.187 9.36033 243.584 9.70398C243.982 10.0336 244.187 10.5834 244.199 11.3533C244.206 11.8152 244.144 12.3063 244.013 12.8265C243.895 13.3325 243.749 13.8389 243.575 14.3457C243.415 14.8524 243.269 15.3238 243.136 15.76C243.017 16.196 242.96 16.5679 242.965 16.8759C242.969 17.1418 243.021 17.33 243.121 17.4404C243.235 17.5506 243.354 17.6047 243.48 17.6027C243.606 17.6006 243.725 17.5637 243.836 17.4919C243.96 17.4059 244.05 17.3135 244.104 17.2146L244.252 17.2542C244.26 17.7722 244.128 18.2293 243.854 18.6258C243.594 19.008 243.263 19.3144 242.861 19.5449C242.458 19.7614 242.04 19.8732 241.606 19.8801ZM248.574 19.8609C248.07 19.8557 247.595 19.6759 247.151 19.3213C246.721 18.9669 246.369 18.4523 246.096 17.7775C245.837 17.1028 245.712 16.2895 245.722 15.3376C245.732 14.3576 245.881 13.4841 246.168 12.717C246.456 11.9499 246.827 11.3026 247.28 10.7752C247.748 10.234 248.249 9.82605 248.784 9.5515C249.333 9.27708 249.866 9.14251 250.384 9.1478C250.958 9.15366 251.467 9.34086 251.911 9.70941C252.356 10.064 252.658 10.6201 252.818 11.3778C252.952 10.6791 253.063 10.0152 253.154 9.38607C253.258 8.7431 253.313 8.17663 253.318 7.68666C253.325 7.04269 253.245 6.57286 253.08 6.27716L253.082 6.15116C253.407 5.79047 253.76 5.52805 254.14 5.36392C254.534 5.18593 254.906 5.09872 255.256 5.10229C255.718 5.107 256.108 5.25799 256.427 5.55526C256.746 5.83853 256.903 6.24615 256.898 6.77813C256.895 7.07211 256.841 7.50559 256.737 8.07856C256.633 8.65153 256.508 9.30828 256.36 10.0488C256.213 10.7753 256.058 11.5298 255.896 12.3122C255.748 13.0807 255.622 13.8215 255.516 14.5344C255.411 15.2334 255.356 15.8419 255.351 16.3598C255.346 16.7938 255.385 17.1442 255.466 17.4111C255.561 17.6641 255.714 17.7916 255.924 17.7938C256.078 17.7953 256.233 17.7479 256.388 17.6515C256.557 17.5412 256.67 17.4164 256.727 17.2769L256.873 17.3834C256.869 17.8454 256.717 18.2709 256.419 18.6599C256.121 19.0348 255.747 19.339 255.297 19.5725C254.847 19.8059 254.383 19.9202 253.907 19.9153C253.389 19.91 252.978 19.7658 252.673 19.4827C252.382 19.1857 252.176 18.8126 252.054 18.3633C251.933 17.9141 251.867 17.4514 251.858 16.9752C251.414 17.9788 250.895 18.7155 250.303 19.1855C249.724 19.6416 249.148 19.8667 248.574 19.8609ZM250.008 17.2084C250.372 17.2121 250.781 16.8873 251.236 16.2339C251.69 15.5805 252.092 14.6255 252.441 13.369L252.574 12.7193C252.355 12.1991 252.114 11.8326 251.85 11.6199C251.6 11.3933 251.356 11.2788 251.118 11.2764C250.768 11.2728 250.437 11.4655 250.125 11.8543C249.814 12.2291 249.557 12.7165 249.354 13.3165C249.166 13.9026 249.069 14.5247 249.062 15.1826C249.056 15.8126 249.142 16.3105 249.32 16.6763C249.499 17.0282 249.728 17.2055 250.008 17.2084ZM265.236 20.2596C264.746 20.2422 264.325 20.0661 263.973 19.7313C263.621 19.3966 263.458 18.8654 263.483 18.1379C263.486 18.0679 263.488 17.998 263.491 17.928C263.493 17.8581 263.503 17.7884 263.519 17.7189C263.07 18.5434 262.572 19.1491 262.026 19.5359C261.494 19.9092 260.962 20.0864 260.431 20.0674C259.941 20.05 259.485 19.8656 259.064 19.5144C258.642 19.1492 258.311 18.626 258.069 17.945C257.827 17.2639 257.723 16.4477 257.757 15.4963C257.792 14.517 257.956 13.6472 258.249 12.8872C258.556 12.1277 258.943 11.49 259.41 10.9743C259.877 10.4586 260.38 10.0773 260.922 9.83042C261.463 9.56954 261.986 9.44807 262.49 9.46602C263.049 9.48596 263.547 9.67879 263.982 10.0445C264.418 10.3963 264.706 10.9459 264.848 11.6934C264.898 11.457 264.934 11.2412 264.955 11.0458C264.99 10.8509 265.009 10.7185 265.011 10.6485C265.039 10.2713 265.237 9.99819 265.608 9.82927C265.992 9.66084 266.408 9.5846 266.856 9.60056C267.247 9.61451 267.615 9.70467 267.96 9.87104C268.304 10.0374 268.533 10.3047 268.645 10.673L268.683 10.8004C268.502 11.1722 268.318 11.6209 268.131 12.1466C267.944 12.6723 267.77 13.2264 267.609 13.8091C267.449 14.3777 267.317 14.9404 267.213 15.497C267.109 16.0397 267.05 16.5209 267.035 16.9406C267.019 17.4023 267.056 17.7259 267.148 17.9112C267.24 18.0826 267.356 18.1708 267.496 18.1758C267.733 18.1843 267.956 18.0241 268.164 17.6953L268.329 17.7852C268.312 18.2609 268.143 18.6892 267.821 19.0699C267.499 19.4507 267.103 19.7518 266.633 19.9732C266.163 20.1806 265.698 20.2761 265.236 20.2596ZM261.91 17.4725C262.274 17.4854 262.684 17.1778 263.141 16.5497C263.612 15.9081 264.03 14.9844 264.395 13.7786C264.428 13.6537 264.46 13.5358 264.492 13.4248C264.524 13.2999 264.55 13.1817 264.568 13.0703C264.362 12.5446 264.137 12.1724 263.893 11.9536C263.663 11.7212 263.429 11.6008 263.191 11.5924C262.842 11.5799 262.506 11.7571 262.185 12.1238C261.878 12.4771 261.617 12.9301 261.401 13.4828C261.199 14.036 261.088 14.5924 261.068 15.152C261.041 15.9215 261.104 16.4982 261.259 16.8819C261.427 17.2661 261.644 17.463 261.91 17.4725ZM271.702 20.5242C271.185 20.4926 270.729 20.2613 270.334 19.8304C269.941 19.3856 269.767 18.7928 269.812 18.0522C269.834 17.6889 269.908 17.2797 270.034 16.8245C270.16 16.3693 270.294 15.9076 270.435 15.4394C270.589 14.9719 270.729 14.5316 270.852 14.1184C270.976 13.7051 271.045 13.3658 271.062 13.1003C271.079 12.8208 271.036 12.6008 270.934 12.4402C270.832 12.2657 270.691 12.1729 270.509 12.1618C270.271 12.1472 270.004 12.2712 269.708 12.5336L269.587 12.442C269.587 12.2176 269.652 11.9551 269.782 11.6545C269.913 11.3539 270.099 11.0707 270.339 10.8049C270.595 10.526 270.91 10.2998 271.286 10.1264C271.661 9.95298 272.1 9.88166 272.603 9.91242C273.344 9.95772 273.875 10.2076 274.198 10.6622C274.536 11.1036 274.686 11.6318 274.648 12.2466C274.635 12.4702 274.601 12.6855 274.546 12.8926C274.866 12.4773 275.256 12.0664 275.715 11.6597C276.176 11.239 276.674 10.8978 277.209 10.6359C277.757 10.375 278.311 10.2616 278.87 10.2957C279.527 10.3359 279.961 10.5729 280.173 11.0066C280.385 11.4404 280.472 11.9717 280.434 12.6005C280.398 13.1874 280.296 13.8124 280.13 14.4754C279.963 15.1385 279.797 15.7806 279.633 16.4017C279.47 17.0089 279.375 17.522 279.35 17.9413C279.315 18.5002 279.459 18.7895 279.78 18.8092C279.948 18.8194 280.098 18.7795 280.229 18.6894C280.362 18.5853 280.452 18.4856 280.5 18.3903L280.643 18.4622C280.612 18.9792 280.437 19.4244 280.12 19.7977C279.816 20.1719 279.441 20.4575 278.994 20.6546C278.548 20.8377 278.102 20.9156 277.654 20.8883C277.109 20.8549 276.639 20.6368 276.243 20.2339C275.847 19.8309 275.675 19.2033 275.727 18.3509C275.758 17.8478 275.854 17.3067 276.015 16.7275C276.191 16.1491 276.358 15.5913 276.518 15.054C276.677 14.5167 276.767 14.0734 276.788 13.724C276.801 13.5144 276.769 13.3512 276.692 13.2342C276.63 13.1042 276.501 13.0332 276.305 13.0212C275.984 13.0016 275.618 13.1265 275.209 13.396C274.814 13.6664 274.462 14.0376 274.152 14.5096C273.857 14.9824 273.691 15.5123 273.655 16.0992C273.632 16.4765 273.652 16.8424 273.714 17.1969C273.791 17.5522 273.817 17.9325 273.792 18.3377C273.746 19.0923 273.515 19.6533 273.1 20.0206C272.685 20.3879 272.219 20.5558 271.702 20.5242ZM285.476 21.5409C284.555 21.4665 283.79 21.1941 283.182 20.7236C282.588 20.2542 282.157 19.6717 281.89 18.9759C281.625 18.2662 281.523 17.5206 281.587 16.7392C281.646 15.9996 281.846 15.2713 282.184 14.5542C282.537 13.8383 283.018 13.1959 283.625 12.627C284.234 12.0441 284.951 11.6034 285.776 11.3049C286.616 10.9935 287.559 10.8801 288.605 10.9646C289.638 11.0481 290.389 11.3194 290.857 11.7786C291.327 12.2239 291.542 12.6907 291.502 13.1791C291.461 13.6954 291.164 14.149 290.613 14.5399C290.062 14.9308 289.291 15.0862 288.3 15.0062C288.373 14.8014 288.431 14.5954 288.476 14.3884C288.536 14.1685 288.574 13.9608 288.59 13.7655C288.613 13.4724 288.57 13.2231 288.461 13.0176C288.352 12.7982 288.137 12.6755 287.816 12.6495C287.523 12.6259 287.198 12.7331 286.842 12.9712C286.5 13.2104 286.189 13.5785 285.91 14.0757C285.645 14.574 285.482 15.1999 285.421 15.9534C285.362 16.693 285.432 17.3026 285.632 17.7823C285.846 18.2631 286.14 18.6239 286.513 18.8648C286.888 19.0918 287.292 19.2227 287.725 19.2576C288.297 19.3039 288.86 19.2019 289.414 18.9517C289.969 18.6875 290.386 18.2999 290.667 17.7888L290.869 17.8894C290.81 18.6151 290.593 19.2225 290.216 19.7118C289.855 20.1882 289.402 20.573 288.859 20.8662C288.317 21.1454 287.746 21.3381 287.148 21.4443C286.549 21.5504 285.992 21.5827 285.476 21.5409ZM296.063 22.4678C295.046 22.3713 294.222 22.0891 293.591 21.6215C292.962 21.1399 292.512 20.5487 292.241 19.848C291.971 19.1333 291.873 18.3857 291.947 17.6052C292.017 16.8665 292.227 16.1411 292.575 15.4288C292.94 14.704 293.423 14.0607 294.024 13.4991C294.64 12.9387 295.356 12.5075 296.172 12.2052C297.002 11.9043 297.912 11.8008 298.902 11.8947C300.128 12.0111 300.994 12.3745 301.498 12.9849C302.018 13.5826 302.241 14.2718 302.167 15.0523C302.103 15.7213 301.863 16.3243 301.447 16.8613C301.046 17.3858 300.536 17.7944 299.917 18.0873C299.3 18.3663 298.643 18.4727 297.946 18.4065C297.584 18.3722 297.22 18.2814 296.854 18.1341C296.488 17.9869 296.136 17.7777 295.796 17.5063C295.783 18.3771 295.975 19.0281 296.37 19.4593C296.765 19.8906 297.262 20.1346 297.861 20.1915C298.279 20.2312 298.705 20.1942 299.137 20.0806C299.571 19.953 299.975 19.7803 300.347 19.5625C300.734 19.3321 301.039 19.0798 301.262 18.8056L301.399 18.924C301.33 19.6488 301.118 20.2544 300.762 20.741C300.422 21.215 299.993 21.5891 299.474 21.8634C298.956 22.1376 298.397 22.3237 297.797 22.4214C297.213 22.5066 296.635 22.522 296.063 22.4678ZM297.08 16.8688C297.526 16.9111 297.9 16.8201 298.202 16.5956C298.506 16.3573 298.744 16.0705 298.917 15.7353C299.089 15.4001 299.188 15.1001 299.213 14.8353C299.244 14.5147 299.178 14.2413 299.017 14.015C298.857 13.7749 298.617 13.6395 298.296 13.6091C298.045 13.5853 297.758 13.6495 297.434 13.8016C297.124 13.955 296.83 14.2434 296.55 14.6669C296.272 15.0765 296.061 15.6682 295.918 16.4421C296.344 16.6935 296.731 16.8357 297.08 16.8688ZM313.918 24.0482C313.429 24.0064 313.018 23.8096 312.682 23.4577C312.347 23.1059 312.211 22.5673 312.273 21.8419C312.279 21.7722 312.285 21.7024 312.291 21.6327C312.297 21.5629 312.31 21.4938 312.33 21.4252C311.839 22.2264 311.312 22.8065 310.747 23.1656C310.198 23.512 309.658 23.6625 309.128 23.6172C308.64 23.5754 308.194 23.3686 307.79 22.9968C307.387 22.6111 307.082 22.0721 306.875 21.3798C306.667 20.6876 306.604 19.8672 306.685 18.9187C306.768 17.9423 306.975 17.0818 307.306 16.3373C307.651 15.594 308.069 14.9764 308.561 14.4845C309.052 13.9927 309.575 13.6369 310.127 13.4173C310.681 13.1837 311.209 13.0883 311.712 13.1313C312.27 13.1791 312.757 13.3964 313.173 13.7834C313.591 14.1563 313.852 14.7197 313.956 15.4733C314.018 15.2397 314.065 15.0259 314.095 14.8318C314.14 14.6389 314.165 14.5076 314.171 14.4378C314.217 14.0624 314.43 13.7996 314.808 13.6493C315.2 13.5002 315.619 13.4447 316.066 13.4829C316.456 13.5164 316.819 13.6247 317.155 13.808C317.49 13.9913 317.705 14.2697 317.8 14.6431L317.831 14.7722C317.631 15.1345 317.425 15.5735 317.212 16.0892C317 16.605 316.798 17.1498 316.609 17.7237C316.42 18.2837 316.26 18.8391 316.129 19.3899C315.999 19.9267 315.916 20.4044 315.88 20.8228C315.84 21.2832 315.862 21.6082 315.944 21.7979C316.027 21.9736 316.139 22.0674 316.278 22.0794C316.515 22.0997 316.746 21.9508 316.97 21.6327L317.13 21.7308C317.089 22.205 316.899 22.6243 316.559 22.9886C316.218 23.3529 315.808 23.6339 315.327 23.8317C314.848 24.0155 314.378 24.0876 313.918 24.0482ZM310.735 21.099C311.097 21.1301 311.522 20.8433 312.01 20.2386C312.512 19.6212 312.976 18.7195 313.4 17.5334C313.439 17.4102 313.477 17.2941 313.514 17.1849C313.553 17.0617 313.584 16.9449 313.608 16.8345C313.429 16.2993 313.223 15.9163 312.989 15.6856C312.771 15.4421 312.544 15.3102 312.307 15.2899C311.958 15.2601 311.614 15.4203 311.275 15.7707C310.951 16.1083 310.667 16.5477 310.424 17.089C310.195 17.6314 310.057 18.1816 310.009 18.7396C309.943 19.5068 309.978 20.0858 310.113 20.4768C310.262 20.8689 310.47 21.0763 310.735 21.099ZM320.732 24.5208C320.215 24.4878 319.76 24.2553 319.367 23.8233C318.974 23.3774 318.802 22.7842 318.849 22.0437C318.872 21.6804 318.948 21.2714 319.075 20.8166C319.202 20.3618 319.337 19.9004 319.479 19.4325C319.635 18.9655 319.776 18.5256 319.9 18.1127C320.025 17.6998 320.095 17.3606 320.112 17.0952C320.13 16.8157 320.088 16.5956 319.986 16.4348C319.885 16.26 319.744 16.1668 319.562 16.1552C319.325 16.14 319.057 16.2632 318.76 16.5247L318.64 16.4329C318.64 16.2084 318.706 15.9461 318.837 15.6459C318.969 15.3456 319.155 15.063 319.397 14.7978C319.653 14.5196 319.969 14.2943 320.345 14.1219C320.72 13.9495 321.16 13.8794 321.663 13.9116C322.403 13.9589 322.934 14.2103 323.256 14.6657C323.592 15.1081 323.741 15.6366 323.702 16.2514C323.687 16.4749 323.652 16.6901 323.597 16.897C323.918 16.4827 324.309 16.0728 324.77 15.6673C325.232 15.2479 325.73 14.9081 326.266 14.6477C326.816 14.3882 327.37 14.2763 327.929 14.3121C328.586 14.354 329.019 14.5922 329.23 15.0265C329.441 15.4608 329.526 15.9924 329.486 16.6211C329.448 17.2079 329.345 17.8326 329.177 18.4952C329.008 19.1578 328.841 19.7994 328.675 20.4201C328.51 21.0268 328.414 21.5397 328.387 21.9589C328.351 22.5177 328.494 22.8074 328.815 22.828C328.983 22.8387 329.133 22.7992 329.265 22.7094C329.398 22.6057 329.488 22.5062 329.537 22.4111L329.679 22.4834C329.646 23.0003 329.47 23.445 329.152 23.8174C328.848 24.1908 328.472 24.4754 328.024 24.6712C327.578 24.8531 327.131 24.9298 326.684 24.9012C326.139 24.8664 325.669 24.647 325.274 24.243C324.879 23.8389 324.709 23.2108 324.763 22.3585C324.795 21.8556 324.893 21.3147 325.056 20.7359C325.234 20.158 325.402 19.6007 325.563 19.0638C325.724 18.527 325.815 18.0839 325.837 17.7346C325.851 17.5251 325.819 17.3617 325.742 17.2446C325.681 17.1144 325.552 17.043 325.356 17.0305C325.035 17.01 324.669 17.1339 324.259 17.4023C323.863 17.6716 323.51 18.0418 323.199 18.5129C322.903 18.985 322.735 19.5144 322.698 20.1012C322.674 20.4784 322.693 20.8444 322.754 21.199C322.83 21.5546 322.854 21.9349 322.828 22.3401C322.78 23.0945 322.548 23.6549 322.132 24.0211C321.716 24.3873 321.249 24.5538 320.732 24.5208ZM333.8 25.2896C333.296 25.2693 332.828 25.0752 332.394 24.7074C331.975 24.3402 331.639 23.8152 331.386 23.1324C331.147 22.4502 331.047 21.6335 331.086 20.6823C331.125 19.7031 331.3 18.8345 331.611 18.0764C331.922 17.3183 332.312 16.6825 332.781 16.1691C333.265 15.6422 333.778 15.2496 334.321 14.9913C334.878 14.7335 335.415 14.6151 335.933 14.636C336.506 14.6592 337.009 14.8617 337.442 15.2435C337.876 15.6113 338.161 16.1762 338.299 16.9384C338.453 16.2441 338.584 15.5839 338.694 14.9578C338.818 14.3182 338.89 13.7537 338.909 13.2641C338.935 12.6206 338.87 12.1486 338.714 11.848L338.719 11.7222C339.056 11.3714 339.416 11.1198 339.801 10.9672C340.2 10.8012 340.574 10.7252 340.924 10.7393C341.386 10.758 341.771 10.9207 342.081 11.2275C342.392 11.5202 342.536 11.9324 342.515 12.464C342.503 12.7577 342.436 13.1894 342.315 13.759C342.194 14.3285 342.049 14.9812 341.879 15.7169C341.71 16.4387 341.532 17.1882 341.347 17.9653C341.176 18.729 341.027 19.4656 340.9 20.1751C340.774 20.8705 340.7 21.4771 340.679 21.9946C340.662 22.4283 340.69 22.7797 340.763 23.0489C340.851 23.3046 340.999 23.4367 341.209 23.4452C341.363 23.4514 341.519 23.4087 341.677 23.317C341.849 23.2119 341.966 23.0905 342.028 22.9529L342.17 23.0637C342.152 23.5253 341.988 23.946 341.678 24.3259C341.369 24.6917 340.986 24.9845 340.529 25.2042C340.071 25.4239 339.605 25.5242 339.129 25.5049C338.612 25.484 338.205 25.3275 337.908 25.0353C337.626 24.7296 337.432 24.3505 337.324 23.8977C337.216 23.445 337.165 22.9806 337.17 22.5044C336.696 23.494 336.155 24.2148 335.548 24.6667C334.956 25.1051 334.373 25.3128 333.8 25.2896ZM335.313 22.6816C335.677 22.6963 336.096 22.3839 336.57 21.7446C337.044 21.1052 337.475 20.1628 337.861 18.9174L338.013 18.272C337.811 17.7454 337.58 17.3718 337.323 17.1512C337.08 16.9172 336.84 16.7954 336.602 16.7858C336.253 16.7717 335.916 16.9542 335.592 17.3335C335.269 17.6988 334.998 18.1782 334.778 18.7718C334.572 19.3519 334.456 19.9708 334.429 20.6282C334.404 21.2577 334.475 21.758 334.642 22.129C334.81 22.4861 335.034 22.6703 335.313 22.6816ZM350.09 25.723C349.362 25.7264 348.766 25.5192 348.302 25.1014C347.852 24.6695 347.624 24.0056 347.62 23.1096C347.618 22.6616 347.665 22.1924 347.761 21.7019C347.87 21.1974 347.987 20.7069 348.111 20.2303C348.248 19.7396 348.365 19.2981 348.461 18.9056C348.558 18.5131 348.605 18.1979 348.604 17.9599C348.603 17.7219 348.553 17.5542 348.455 17.4566C348.356 17.3451 348.237 17.2896 348.097 17.2903C347.957 17.291 347.817 17.3406 347.678 17.4393C347.538 17.5239 347.42 17.6575 347.322 17.84L347.154 17.7778C347.179 17.2036 347.338 16.7129 347.63 16.3055C347.922 15.8981 348.285 15.5884 348.718 15.3763C349.165 15.1642 349.612 15.0571 350.06 15.055C350.424 15.0533 350.775 15.1286 351.111 15.2811C351.448 15.4195 351.715 15.6422 351.913 15.9493C352.124 16.2423 352.224 16.6198 352.212 17.0819C352.199 17.39 352.145 17.7682 352.049 18.2167C351.953 18.6651 351.837 19.1487 351.699 19.6673C351.575 20.1719 351.466 20.6624 351.37 21.1389C351.274 21.6154 351.227 22.0356 351.229 22.3996C351.23 22.7076 351.274 22.9524 351.358 23.134C351.457 23.3155 351.619 23.4058 351.843 23.4047C352.081 23.4036 352.395 23.2761 352.786 23.0222C353.177 22.7684 353.567 22.4026 353.957 21.9247C353.869 21.1411 353.824 20.4483 353.821 19.8463C353.814 18.3063 354.032 17.1923 354.477 16.5042C354.936 15.816 355.508 15.4703 356.194 15.4671C356.698 15.4647 357.042 15.6311 357.226 15.9662C357.409 16.3014 357.502 16.7489 357.505 17.3089C357.509 18.1349 357.373 18.9126 357.096 19.6419C356.819 20.3712 356.493 20.9537 356.117 21.3895C356.148 22.0194 356.277 22.5088 356.502 22.8577C356.742 23.2066 357.023 23.3803 357.345 23.3788C357.667 23.3772 357.995 23.1937 358.329 22.8281C358.677 22.4625 358.976 21.901 359.224 21.1439C359.473 20.3867 359.615 19.427 359.652 18.2648C359.661 17.3268 359.595 16.6411 359.453 16.2077L359.452 16.1027C359.647 15.7798 359.954 15.5054 360.372 15.2794C360.805 15.0393 361.239 14.9183 361.673 14.9162C361.981 14.9148 362.261 15.0045 362.514 15.1853C362.781 15.352 362.992 15.673 363.149 16.1483C363.305 16.6096 363.364 17.2813 363.326 18.1635C363.29 19.3957 363.092 20.4816 362.732 21.4213C362.373 22.347 361.908 23.1262 361.336 23.7589C360.779 24.3916 360.173 24.8704 359.516 25.1955C358.86 25.5206 358.21 25.6847 357.566 25.6877C356.838 25.6912 356.172 25.4983 355.568 25.1092C354.964 24.706 354.506 24.1411 354.195 23.4146C353.568 24.0756 352.919 24.6246 352.25 25.0618C351.594 25.4989 350.874 25.7193 350.09 25.723ZM372.41 25.2639C371.92 25.288 371.486 25.1481 371.106 24.8444C370.727 24.5407 370.519 24.0252 370.484 23.2981C370.48 23.2282 370.477 23.1583 370.473 23.0884C370.47 23.0184 370.474 22.9482 370.484 22.8776C370.106 23.7372 369.661 24.3828 369.15 24.8144C368.651 25.2314 368.137 25.4529 367.605 25.4791C367.116 25.5031 366.646 25.358 366.196 25.0437C365.746 24.7154 365.371 24.2222 365.072 23.5641C364.774 22.906 364.601 22.1015 364.554 21.1506C364.506 20.1718 364.596 19.2913 364.824 18.5092C365.066 17.7264 365.397 17.0583 365.819 16.505C366.24 15.9516 366.71 15.529 367.228 15.2372C367.746 14.9314 368.256 14.7662 368.76 14.7414C369.319 14.7139 369.831 14.864 370.295 15.1916C370.759 15.5052 371.094 16.0284 371.298 16.7613C371.328 16.5215 371.345 16.3034 371.35 16.1069C371.368 15.9098 371.375 15.7763 371.372 15.7063C371.367 15.3281 371.543 15.0392 371.897 14.8395C372.266 14.6392 372.674 14.528 373.121 14.506C373.513 14.4868 373.887 14.5455 374.244 14.6821C374.601 14.8187 374.852 15.0657 374.996 15.4231L375.044 15.5469C374.894 15.9327 374.749 16.3954 374.607 16.935C374.466 17.4746 374.339 18.0415 374.228 18.6356C374.117 19.2158 374.033 19.7876 373.976 20.3511C373.919 20.9005 373.901 21.385 373.922 21.8045C373.944 22.266 374.009 22.5852 374.116 22.7621C374.222 22.9251 374.345 23.0032 374.485 22.9963C374.722 22.9846 374.931 22.8062 375.11 22.461L375.282 22.5366C375.305 23.012 375.173 23.4531 374.885 23.8597C374.596 24.2664 374.227 24.5999 373.777 24.8603C373.327 25.1067 372.871 25.2412 372.41 25.2639ZM368.86 22.7682C369.223 22.7503 369.606 22.4091 370.008 21.7446C370.423 21.0654 370.762 20.1096 371.023 18.8773C371.045 18.7501 371.067 18.6298 371.09 18.5166C371.111 18.3894 371.127 18.2695 371.135 18.1569C370.886 17.6505 370.63 17.2987 370.368 17.1013C370.12 16.8893 369.876 16.7891 369.639 16.8008C369.289 16.8179 368.97 17.0229 368.681 17.4155C368.405 17.7935 368.183 18.267 368.015 18.8359C367.86 19.4042 367.797 19.968 367.824 20.5273C367.862 21.2964 367.974 21.8656 368.161 22.2349C368.361 22.6035 368.594 22.7813 368.86 22.7682ZM379.392 24.7564C378.89 24.8032 378.425 24.6428 377.997 24.275C377.568 23.8932 377.318 23.326 377.248 22.5733C377.214 22.2108 377.217 21.7957 377.258 21.3279C377.298 20.8601 377.352 20.384 377.42 19.8997C377.486 19.4014 377.541 18.9392 377.586 18.5133C377.629 18.0733 377.637 17.714 377.611 17.4352C377.584 17.1425 377.507 16.9177 377.38 16.7608C377.265 16.5887 377.124 16.5105 376.957 16.5261C376.692 16.5508 376.437 16.7574 376.192 17.1459L376.059 17.0739C376.024 16.8522 376.048 16.5828 376.131 16.2657C376.214 15.9486 376.361 15.6396 376.572 15.3387C376.782 15.0239 377.059 14.752 377.403 14.523C377.761 14.2927 378.191 14.1541 378.693 14.1072C379.431 14.0383 379.988 14.2042 380.363 14.6051C380.737 14.992 380.952 15.4852 381.008 16.0846C381.017 16.1822 381.019 16.2874 381.016 16.4002C381.025 16.4978 381.027 16.596 381.022 16.6949C381.44 15.7419 381.898 15.0031 382.397 14.4784C382.909 13.9385 383.402 13.6464 383.876 13.6021C384.322 13.5605 384.666 13.7042 384.908 14.0331C385.149 14.3621 385.293 14.7705 385.339 15.2584C385.38 15.7044 385.332 16.1659 385.194 16.6428C385.069 17.1185 384.847 17.5259 384.527 17.8651C384.22 18.189 383.822 18.3668 383.333 18.3984L383.245 18.3644C383.197 18.0033 383.052 17.7286 382.81 17.5404C382.567 17.3521 382.306 17.271 382.028 17.297C381.651 17.3321 381.313 17.5535 381.014 17.9611C380.729 18.3674 380.619 18.926 380.685 19.6369C380.726 20.069 380.818 20.5315 380.963 21.0242C381.107 21.5169 381.196 21.9375 381.228 22.286C381.267 22.7041 381.205 23.0966 381.043 23.4633C380.88 23.83 380.655 24.1322 380.368 24.3699C380.08 24.5937 379.754 24.7225 379.392 24.7564ZM389.672 23.544C389.175 23.6301 388.692 23.5079 388.223 23.1773C387.765 22.8304 387.474 22.2984 387.349 21.5811C387.287 21.2225 387.265 20.8072 387.282 20.3352C387.297 19.8495 387.318 19.3556 387.345 18.8537C387.385 18.3494 387.417 17.875 387.439 17.4307C387.461 16.9863 387.448 16.6193 387.397 16.3296C387.357 16.0951 387.269 15.9185 387.135 15.7997C386.998 15.6671 386.84 15.6163 386.661 15.6475C386.426 15.6881 386.195 15.8704 385.967 16.1941L385.829 16.1329C385.776 15.9146 385.779 15.6441 385.837 15.3215C385.895 14.9989 386.024 14.6781 386.224 14.3591C386.422 14.0264 386.704 13.7288 387.071 13.4662C387.438 13.2037 387.897 13.0246 388.448 12.9289C389.069 12.8212 389.57 12.9617 389.95 13.3505C390.341 13.7231 390.589 14.2128 390.695 14.8197C390.707 14.8887 390.72 14.9646 390.734 15.0473C390.746 15.1163 390.751 15.1865 390.749 15.2578C390.937 14.7848 391.169 14.3183 391.444 13.8584C391.734 13.3962 392.076 12.9957 392.472 12.6571C392.88 12.3022 393.345 12.0793 393.869 11.9884C394.545 11.8711 395.053 12.0105 395.391 12.4064C395.728 12.7886 395.944 13.2555 396.039 13.8073C396.058 13.9176 396.071 14.0292 396.076 14.1419C396.093 14.2385 396.103 14.3362 396.106 14.4352C396.321 13.9573 396.565 13.4815 396.838 13.0079C397.123 12.5181 397.469 12.0957 397.876 11.7409C398.281 11.3722 398.78 11.1365 399.373 11.0335C400.104 10.9067 400.638 11.0344 400.974 11.4165C401.324 11.7963 401.55 12.2758 401.65 12.8552C401.739 13.3655 401.778 13.9625 401.769 14.6462C401.757 15.316 401.744 15.979 401.73 16.6351C401.716 17.2911 401.748 17.8399 401.824 18.2813C401.87 18.5433 401.941 18.7512 402.039 18.9047C402.15 19.0559 402.296 19.1159 402.475 19.0848C402.627 19.0585 402.758 18.9932 402.867 18.8889C402.989 18.7684 403.066 18.6413 403.1 18.5076L403.276 18.5409C403.364 19.0513 403.297 19.5247 403.075 19.9612C402.852 20.3977 402.539 20.7646 402.136 21.0619C401.731 21.3454 401.307 21.5254 400.866 21.602C400.328 21.6953 399.821 21.5985 399.345 21.3117C398.882 21.0225 398.58 20.464 398.436 19.6364C398.347 19.126 398.314 18.5635 398.335 17.9488C398.37 17.3317 398.402 16.7365 398.43 16.1632C398.47 15.5738 398.459 15.0997 398.397 14.7411C398.308 14.2307 398.084 14.0066 397.726 14.0688C397.464 14.1143 397.221 14.2701 396.997 14.5363C396.785 14.7863 396.606 15.1085 396.461 15.5031C396.328 15.8814 396.233 16.2745 396.176 16.6823C396.119 17.09 396.121 17.4732 396.183 17.8319C396.241 18.1629 396.339 18.5225 396.477 18.9105C396.627 19.2824 396.733 19.6477 396.795 20.0063C396.919 20.7236 396.815 21.3101 396.482 21.7657C396.149 22.2213 395.714 22.4958 395.176 22.5891C394.679 22.6753 394.202 22.5875 393.745 22.3259C393.301 22.0618 393.022 21.5987 392.907 20.9366C392.854 20.6332 392.832 20.2604 392.841 19.8185C392.847 19.3627 392.858 18.892 392.873 18.4062C392.899 17.9043 392.916 17.4254 392.922 16.9697C392.928 16.5139 392.903 16.1205 392.845 15.7894C392.8 15.5273 392.722 15.3276 392.613 15.1902C392.518 15.0505 392.36 14.9997 392.139 15.038C391.822 15.0931 391.546 15.3043 391.311 15.6719C391.077 16.0394 390.896 16.4687 390.768 16.9598C390.637 17.4371 390.573 17.8886 390.576 18.3144C390.579 18.4134 390.579 18.4916 390.574 18.5492C390.584 18.6044 390.589 18.632 390.589 18.632C390.663 19.0596 390.779 19.4443 390.938 19.7862C391.095 20.1143 391.205 20.4646 391.27 20.837C391.387 21.5129 391.278 22.1144 390.943 22.6414C390.62 23.1522 390.196 23.453 389.672 23.544ZM408.381 19.8842C407.95 20.0054 407.512 20.0265 407.068 19.9476C406.634 19.8515 406.237 19.6286 405.877 19.2789C405.53 18.9254 405.266 18.4252 405.084 17.7783C404.986 17.4278 404.891 16.9601 404.799 16.3751C404.708 15.7901 404.621 15.1454 404.54 14.4412C404.472 13.7332 404.404 13.0253 404.336 12.3173C404.07 12.4065 403.815 12.5073 403.57 12.6196C403.339 12.7282 403.109 12.8435 402.882 12.9656L402.802 12.8355C402.98 12.4362 403.186 12.0804 403.418 11.768C403.65 11.4556 403.907 11.1798 404.189 10.9407C404.114 10.0019 404.047 9.19196 403.986 8.51093C403.922 7.81642 403.873 7.40851 403.839 7.2872C403.774 7.05807 403.897 6.82015 404.205 6.57345C404.528 6.32296 404.911 6.13524 405.356 6.01029C405.747 5.90049 406.132 5.87239 406.51 5.92599C406.902 5.97581 407.208 6.1589 407.428 6.47526C407.37 6.57885 407.34 6.91429 407.34 7.48159C407.335 8.03542 407.356 8.7057 407.403 9.49244C407.663 9.43398 407.929 9.37362 408.203 9.31138C408.476 9.24913 408.758 9.19173 409.049 9.13917C409.098 9.21247 409.143 9.2944 409.183 9.38496C409.223 9.47552 409.258 9.57472 409.289 9.68254C409.345 9.88472 409.374 10.1166 409.375 10.3781C409.385 10.6224 409.377 10.8502 409.349 11.0616C409.018 11.1256 408.707 11.1838 408.416 11.2364C408.122 11.2754 407.838 11.3261 407.565 11.3883C407.62 11.9982 407.681 12.6062 407.75 13.2122C407.832 13.8145 407.912 14.3591 407.991 14.846C408.083 15.3291 408.167 15.7054 408.242 15.975C408.401 16.5411 408.609 16.8901 408.864 17.022C409.132 17.1501 409.415 17.1725 409.711 17.0892C409.981 17.0135 410.209 16.8914 410.394 16.723C410.579 16.5546 410.698 16.383 410.751 16.2082L410.97 16.2121C411.045 16.7874 410.965 17.3332 410.732 17.8495C410.495 18.3523 410.166 18.7864 409.746 19.1518C409.321 19.5038 408.866 19.7479 408.381 19.8842ZM415.586 17.3527C415.037 17.5995 414.513 17.6124 414.014 17.3914C413.516 17.1704 413.123 16.7406 412.836 16.1022C412.681 15.7574 412.525 15.2904 412.367 14.7012C412.204 14.0992 412.037 13.4375 411.866 12.7161C411.703 11.9762 411.529 11.2328 411.347 10.4859C411.159 9.72616 410.963 9.00062 410.76 8.30923C410.557 7.61783 410.343 7.02314 410.119 6.52516C409.838 5.89949 409.551 5.48351 409.259 5.27723L409.207 5.16231C409.344 4.71679 409.545 4.34278 409.808 4.0403C410.071 3.73781 410.362 3.5148 410.681 3.37128C411.166 3.15313 411.659 3.13893 412.159 3.32868C412.658 3.51844 413.063 3.95807 413.373 4.64759C413.54 5.01788 413.692 5.49414 413.831 6.07635C413.97 6.65857 414.102 7.27494 414.225 7.92545C414.349 8.57597 414.455 9.18817 414.545 9.76208C414.575 9.18055 414.684 8.57097 414.874 7.93333C415.07 7.27717 415.354 6.68105 415.727 6.14497C416.113 5.60314 416.587 5.20593 417.149 4.95333C417.787 4.66628 418.304 4.67188 418.699 4.97012C419.107 5.26262 419.443 5.70255 419.707 6.28991C419.948 6.8262 420.149 7.42663 420.309 8.0912C420.464 8.743 420.611 9.37565 420.748 9.98915C420.88 10.5899 421.029 11.0754 421.196 11.4457C421.437 11.982 421.717 12.1784 422.036 12.0348C422.177 11.9717 422.281 11.8788 422.349 11.7563C422.423 11.6152 422.463 11.4822 422.468 11.3571L422.646 11.3925C422.869 11.8905 422.938 12.3664 422.85 12.8203C422.762 13.2741 422.567 13.6765 422.265 14.0275C421.975 14.3728 421.632 14.6344 421.236 14.8123C420.712 15.0477 420.162 15.0877 419.586 14.9324C419.004 14.7643 418.535 14.2845 418.179 13.4928C417.978 13.0459 417.817 12.5349 417.697 11.9597C417.589 11.3787 417.484 10.8198 417.381 10.2829C417.272 9.7333 417.142 9.29248 416.993 8.96049C416.798 8.52635 416.547 8.37817 416.241 8.51595C415.96 8.64225 415.716 8.92049 415.511 9.35066C415.305 9.78084 415.169 10.264 415.103 10.8002C415.05 11.3307 415.077 11.8174 415.184 12.2605C415.205 12.3741 415.246 12.5011 415.31 12.6416C415.453 12.9608 415.636 13.2472 415.857 13.5007C416.091 13.7484 416.297 14.0702 416.475 14.466C416.739 15.0534 416.807 15.6139 416.679 16.1475C416.55 16.6811 416.186 17.0828 415.586 17.3527Z" fill="#6E4829"/>
</svg>
